<svg width="20" height="20" viewBox="0 0 20 20" fill="none" xmlns="http://www.w3.org/2000/svg">
<path d="M6.66666 1.66666V4.16666" stroke="#1D2022" stroke-width="1.5" stroke-miterlimit="10" stroke-linecap="round" stroke-linejoin="round"/>
<path d="M13.3333 1.66666V4.16666" stroke="#1D2022" stroke-width="1.5" stroke-miterlimit="10" stroke-linecap="round" stroke-linejoin="round"/>
<path d="M13.3333 2.91666C16.1083 3.06666 17.5 4.12499 17.5 8.04166V13.1917C17.5 16.625 16.6667 18.3417 12.5 18.3417H7.5C3.33333 18.3417 2.5 16.625 2.5 13.1917V8.04166C2.5 4.12499 3.89167 3.07499 6.66667 2.91666H13.3333Z" stroke="#292D32" stroke-width="1.5" stroke-miterlimit="10" stroke-linecap="round" stroke-linejoin="round"/>
<path opacity="0.4" d="M17.2917 14.6667H2.70834" stroke="#292D32" stroke-width="1.5" stroke-miterlimit="10" stroke-linecap="round" stroke-linejoin="round"/>
<path opacity="0.4" d="M9.99999 6.875C8.97499 6.875 8.10832 7.43333 8.10832 8.51667C8.10832 9.03333 8.34999 9.425 8.71666 9.675C8.20832 9.975 7.91666 10.4583 7.91666 11.025C7.91666 12.0583 8.70832 12.7 9.99999 12.7C11.2833 12.7 12.0833 12.0583 12.0833 11.025C12.0833 10.4583 11.7917 9.96667 11.275 9.675C11.65 9.41667 11.8833 9.03333 11.8833 8.51667C11.8833 7.43333 11.025 6.875 9.99999 6.875ZM9.99999 9.24167C9.56666 9.24167 9.24999 8.98333 9.24999 8.575C9.24999 8.15833 9.56666 7.91667 9.99999 7.91667C10.4333 7.91667 10.75 8.15833 10.75 8.575C10.75 8.98333 10.4333 9.24167 9.99999 9.24167ZM9.99999 11.6667C9.44999 11.6667 9.04999 11.3917 9.04999 10.8917C9.04999 10.3917 9.44999 10.125 9.99999 10.125C10.55 10.125 10.95 10.4 10.95 10.8917C10.95 11.3917 10.55 11.6667 9.99999 11.6667Z" fill="#292D32"/>
</svg>
