<svg width="14" height="14" viewBox="0 0 14 14" fill="none" xmlns="http://www.w3.org/2000/svg">
<path d="M9.33334 7.525V9.97501C9.33334 12.0167 8.51667 12.8333 6.47501 12.8333H4.02501C1.98334 12.8333 1.16667 12.0167 1.16667 9.97501V7.525C1.16667 5.48334 1.98334 4.66667 4.02501 4.66667H6.47501C8.51667 4.66667 9.33334 5.48334 9.33334 7.525Z" stroke="#FF5D01" stroke-width="1.5" stroke-linecap="round" stroke-linejoin="round"/>
<path d="M12.8333 4.02501V6.47501C12.8333 8.51667 12.0167 9.33334 9.97501 9.33334H9.33334V7.525C9.33334 5.48334 8.51667 4.66667 6.47501 4.66667H4.66667V4.02501C4.66667 1.98334 5.48334 1.16667 7.525 1.16667H9.97501C12.0167 1.16667 12.8333 1.98334 12.8333 4.02501Z" stroke="#FF5D01" stroke-width="1.5" stroke-linecap="round" stroke-linejoin="round"/>
</svg>
