<svg width="20" height="20" viewBox="0 0 20 20" fill="none" xmlns="http://www.w3.org/2000/svg">
<path d="M13.9167 15.8167H6.08335C5.73335 15.8167 5.34168 15.5417 5.22501 15.2083L1.77501 5.55833C1.28335 4.17499 1.85835 3.74999 3.04168 4.59999L6.29168 6.92499C6.83335 7.29999 7.45001 7.10833 7.68335 6.49999L9.15001 2.59166C9.61668 1.34166 10.3917 1.34166 10.8583 2.59166L12.325 6.49999C12.5583 7.10833 13.175 7.29999 13.7083 6.92499L16.7583 4.74999C18.0583 3.81666 18.6833 4.29166 18.15 5.79999L14.7833 15.225C14.6583 15.5417 14.2667 15.8167 13.9167 15.8167Z" stroke="#1D2022" stroke-width="1.5" stroke-linecap="round" stroke-linejoin="round"/>
<path opacity="0.34" d="M5.41666 18.3333H14.5833" stroke="#1D2022" stroke-width="1.5" stroke-linecap="round" stroke-linejoin="round"/>
<path opacity="0.34" d="M7.91666 11.6667H12.0833" stroke="#1D2022" stroke-width="1.5" stroke-linecap="round" stroke-linejoin="round"/>
</svg>
