<svg width="20" height="20" viewBox="0 0 20 20" fill="none" xmlns="http://www.w3.org/2000/svg">
<path d="M7.49999 18.3333H12.5C16.6667 18.3333 18.3333 16.6667 18.3333 12.5V7.50001C18.3333 3.33334 16.6667 1.66667 12.5 1.66667H7.49999C3.33332 1.66667 1.66666 3.33334 1.66666 7.50001V12.5C1.66666 16.6667 3.33332 18.3333 7.49999 18.3333Z" stroke="#1D2022" stroke-width="1.5" stroke-linecap="round" stroke-linejoin="round"/>
<path opacity="0.4" d="M12.9167 8.125C13.607 8.125 14.1667 7.56536 14.1667 6.875C14.1667 6.18464 13.607 5.625 12.9167 5.625C12.2263 5.625 11.6667 6.18464 11.6667 6.875C11.6667 7.56536 12.2263 8.125 12.9167 8.125Z" stroke="#1D2022" stroke-width="1.5" stroke-miterlimit="10" stroke-linecap="round" stroke-linejoin="round"/>
<path opacity="0.4" d="M7.08334 8.125C7.7737 8.125 8.33334 7.56536 8.33334 6.875C8.33334 6.18464 7.7737 5.625 7.08334 5.625C6.39299 5.625 5.83334 6.18464 5.83334 6.875C5.83334 7.56536 6.39299 8.125 7.08334 8.125Z" stroke="#1D2022" stroke-width="1.5" stroke-miterlimit="10" stroke-linecap="round" stroke-linejoin="round"/>
<path opacity="0.4" d="M7 11.0833H13C13.4167 11.0833 13.75 11.4167 13.75 11.8333C13.75 13.9083 12.075 15.5833 10 15.5833C7.925 15.5833 6.25 13.9083 6.25 11.8333C6.25 11.4167 6.58333 11.0833 7 11.0833Z" stroke="#1D2022" stroke-width="1.5" stroke-miterlimit="10" stroke-linecap="round" stroke-linejoin="round"/>
</svg>
