<svg width="32" height="32" viewBox="0 0 32 32" fill="none" xmlns="http://www.w3.org/2000/svg">
<defs>
<linearGradient id="paint0_linear_2183_6006" x1="2.66675" y1="16" x2="29.3334" y2="16" gradientUnits="userSpaceOnUse">
<stop stop-color="#FF5D01"/>
<stop offset="1" stop-color="#F58634"/>
</linearGradient>
</defs>
<g id="vuesax/bold/add-circle">
<g id="add-circle">
<path id="Vector" d="M16.0001 2.66669C8.65341 2.66669 2.66675 8.65335 2.66675 16C2.66675 23.3467 8.65341 29.3334 16.0001 29.3334C23.3467 29.3334 29.3334 23.3467 29.3334 16C29.3334 8.65335 23.3467 2.66669 16.0001 2.66669ZM21.3334 17H17.0001V21.3334C17.0001 21.88 16.5467 22.3334 16.0001 22.3334C15.4534 22.3334 15.0001 21.88 15.0001 21.3334V17H10.6667C10.1201 17 9.66675 16.5467 9.66675 16C9.66675 15.4534 10.1201 15 10.6667 15H15.0001V10.6667C15.0001 10.12 15.4534 9.66669 16.0001 9.66669C16.5467 9.66669 17.0001 10.12 17.0001 10.6667V15H21.3334C21.8801 15 22.3334 15.4534 22.3334 16C22.3334 16.5467 21.8801 17 21.3334 17Z" fill="url(#paint0_linear_2183_6006)"/>
</g>
</g>
</svg>
