<svg width="32" height="32" viewBox="0 0 32 32" fill="none" xmlns="http://www.w3.org/2000/svg">
<g id="Social media logo">
<g id="Vector">
<path d="M20.1485 3.84717C20.2492 5.16184 19.8334 6.46398 18.9895 7.47706C18.5854 7.97967 18.0725 8.38403 17.4895 8.65969C16.9065 8.93535 16.2685 9.07513 15.6236 9.06849C15.5825 8.43628 15.6663 7.80215 15.8704 7.20237C16.0745 6.60259 16.3947 6.04891 16.8129 5.57299C17.6682 4.59878 18.8592 3.98258 20.1485 3.84717Z" fill="black"/>
<path d="M22.5003 13.4157C22.0718 14.1706 21.8413 15.0216 21.8301 15.8896C21.8312 16.8659 22.1196 17.8204 22.6594 18.6339C23.1993 19.4474 23.9666 20.084 24.8658 20.4643C24.5123 21.6128 23.9794 22.6982 23.2868 23.6802C22.3567 25.0715 21.3816 26.4307 19.8338 26.4558C19.0977 26.4728 18.6008 26.2611 18.0831 26.0406C17.543 25.8105 16.9802 25.5708 16.0996 25.5708C15.1656 25.5708 14.5776 25.8182 14.0105 26.0569C13.5205 26.2631 13.046 26.4628 12.3774 26.4905C10.9033 26.5451 9.77686 25.0056 8.81298 23.6274C6.88647 20.8128 5.38636 15.6954 7.39747 12.2134C7.86175 11.3791 8.53422 10.6793 9.34937 10.1821C10.1645 9.68501 11.0946 9.40751 12.0488 9.37668C12.8848 9.35948 13.687 9.6817 14.3903 9.96419C14.9282 10.1802 15.4082 10.373 15.8013 10.373C16.1469 10.373 16.6135 10.1878 17.1573 9.97201C18.014 9.63202 19.0622 9.21601 20.1303 9.32813C20.9489 9.35374 21.7503 9.56988 22.4707 9.95937C23.1912 10.3489 23.8109 10.901 24.2807 11.5719C23.5412 12.0265 22.9288 12.6608 22.5003 13.4157Z" fill="black"/>
</g>
</g>
</svg>
