<svg width="24" height="25" viewBox="0 0 24 25" fill="none" xmlns="http://www.w3.org/2000/svg">
<defs>
<linearGradient id="paint0_linear_1788_12108" x1="6.18994" y1="4.5431" x2="17.8099" y2="4.5431" gradientUnits="userSpaceOnUse">
<stop stop-color="#FF5D01"/>
<stop offset="1" stop-color="#F58634"/>
</linearGradient>
<linearGradient id="paint1_linear_1788_12108" x1="4.25" y1="13.9756" x2="19.75" y2="13.9756" gradientUnits="userSpaceOnUse">
<stop stop-color="#FF5D01"/>
<stop offset="1" stop-color="#F58634"/>
</linearGradient>
</defs>
<g id="vuesax/bold/award">
<path id="Vector" d="M17.8099 5.9131V6.6531L14.2699 4.6031C12.9299 3.8331 11.0599 3.8331 9.72994 4.6031L6.18994 6.6631V5.9131C6.18994 3.6631 7.41994 2.4231 9.66994 2.4231H14.3299C16.5799 2.4231 17.8099 3.6631 17.8099 5.9131Z" fill="url(#paint0_linear_1788_12108)"/>
<path id="Vector_2" d="M17.84 8.39309L17.7 8.32309L16.34 7.54309L13.52 5.91309C12.66 5.41309 11.34 5.41309 10.48 5.91309L7.66 7.53309L6.3 8.33309L6.12 8.42309C4.37 9.60309 4.25 9.82309 4.25 11.7131V16.2331C4.25 18.1231 4.37 18.3431 6.16 19.5531L10.48 22.0431C10.91 22.3031 11.45 22.4131 12 22.4131C12.54 22.4131 13.09 22.2931 13.52 22.0431L17.88 19.5231C19.64 18.3431 19.75 18.1331 19.75 16.2331V11.7131C19.75 9.82309 19.63 9.60309 17.84 8.39309ZM14.79 13.9231L14.18 14.6731C14.08 14.7831 14.01 14.9931 14.02 15.1431L14.08 16.1031C14.12 16.6931 13.7 16.9931 13.15 16.7831L12.26 16.4231C12.12 16.3731 11.89 16.3731 11.75 16.4231L10.86 16.7731C10.31 16.9931 9.89 16.6831 9.93 16.0931L9.99 15.1331C10 14.9831 9.93 14.7731 9.83 14.6631L9.21 13.9231C8.83 13.4731 9 12.9731 9.57 12.8231L10.5 12.5831C10.65 12.5431 10.82 12.4031 10.9 12.2831L11.42 11.4831C11.74 10.9831 12.25 10.9831 12.58 11.4831L13.1 12.2831C13.18 12.4131 13.36 12.5431 13.5 12.5831L14.43 12.8231C15 12.9731 15.17 13.4731 14.79 13.9231Z" fill="url(#paint1_linear_1788_12108)"/>
</g>
</svg>
