<svg width="16" height="16" viewBox="0 0 16 16" fill="none" xmlns="http://www.w3.org/2000/svg">
<g id="vuesax/bold/game">
<g id="game">
<path id="Vector" d="M11.1 3.81333H4.89998C2.93331 3.81333 1.33331 5.41333 1.33331 7.38V11.1C1.33331 13.0667 2.93331 14.6667 4.89998 14.6667H11.1C13.0666 14.6667 14.6666 13.0667 14.6666 11.1V7.38C14.6666 5.41333 13.0666 3.81333 11.1 3.81333ZM9.66665 8.01333C9.66665 7.64667 9.96665 7.34667 10.3333 7.34667C10.7 7.34667 11 7.64667 11 8.01333C11 8.38 10.7 8.68667 10.3333 8.68667C9.96665 8.68667 9.66665 8.39333 9.66665 8.02667V8.01333ZM6.75331 10.7133C6.65331 10.8133 6.52665 10.86 6.39998 10.86C6.27331 10.86 6.14665 10.8133 6.04665 10.7133L5.35998 10.0267L4.69998 10.6867C4.59998 10.7867 4.47331 10.8333 4.34665 10.8333C4.21998 10.8333 4.09331 10.7867 3.99331 10.6867C3.79998 10.4933 3.79998 10.1733 3.99331 9.98L4.65331 9.32L4.01331 8.68C3.81998 8.48667 3.81998 8.16667 4.01331 7.97333C4.20665 7.78 4.52665 7.78 4.71998 7.97333L5.35998 8.61333L6.01998 7.95333C6.21331 7.76 6.53331 7.76 6.72665 7.95333C6.91998 8.14667 6.91998 8.46667 6.72665 8.66L6.06665 9.32L6.75331 10.0067C6.94665 10.2 6.94665 10.52 6.75331 10.7133ZM9.02665 10C8.65998 10 8.35331 9.7 8.35331 9.33333C8.35331 8.96667 8.64665 8.66667 9.01331 8.66667H9.02665C9.39331 8.66667 9.69331 8.96667 9.69331 9.33333C9.69331 9.7 9.39998 10 9.02665 10ZM10.3333 11.3133C9.96665 11.3133 9.66665 11.02 9.66665 10.6533V10.64C9.66665 10.2733 9.96665 9.97333 10.3333 9.97333C10.7 9.97333 11 10.2733 11 10.64C11 11.0067 10.7066 11.3133 10.3333 11.3133ZM11.6533 10C11.2866 10 10.98 9.7 10.98 9.33333C10.98 8.96667 11.2733 8.66667 11.64 8.66667H11.6533C12.02 8.66667 12.32 8.96667 12.32 9.33333C12.32 9.7 12.0266 10 11.6533 10Z" fill="url(#paint0_linear_656_307)"/>
<path id="Vector_2" d="M9.09334 1.80667L9.08668 2.43333C9.08001 3.02 8.59334 3.50667 8.00001 3.50667C7.90001 3.50667 7.84001 3.57333 7.84001 3.66C7.84001 3.74667 7.90668 3.81333 7.99334 3.81333H6.92001C6.91334 3.76667 6.90668 3.71333 6.90668 3.66C6.90668 3.06 7.39334 2.57333 7.98668 2.57333C8.08668 2.57333 8.15334 2.50667 8.15334 2.42L8.16001 1.79333C8.16668 1.54 8.37334 1.33333 8.62668 1.33333H8.63334C8.89334 1.33333 9.09334 1.54667 9.09334 1.80667Z" fill="url(#paint1_linear_656_307)"/>
</g>
</g>
<defs>
<linearGradient id="paint0_linear_656_307" x1="1.33331" y1="9.24" x2="14.6666" y2="9.24" gradientUnits="userSpaceOnUse">
<stop stop-color="#FF5D01"/>
<stop offset="1" stop-color="#F58634"/>
</linearGradient>
<linearGradient id="paint1_linear_656_307" x1="6.90668" y1="2.57333" x2="9.09334" y2="2.57333" gradientUnits="userSpaceOnUse">
<stop stop-color="#FF5D01"/>
<stop offset="1" stop-color="#F58634"/>
</linearGradient>
</defs>
</svg>
