<svg width="32" height="32" viewBox="0 0 32 32" fill="none" xmlns="http://www.w3.org/2000/svg">
<g id="vuesax/bulk/coin">
<g id="coin">
<path id="Vector" opacity="0.4" d="M13.32 23.9733C19.2036 23.9733 23.9733 19.2037 23.9733 13.32C23.9733 7.43633 19.2036 2.66667 13.32 2.66667C7.43629 2.66667 2.66663 7.43633 2.66663 13.32C2.66663 19.2037 7.43629 23.9733 13.32 23.9733Z" fill="#FAAD14"/>
<path id="Vector_2" d="M29.2933 21.32C29.2933 25.72 25.72 29.2933 21.32 29.2933C18.6 29.2933 16.2133 27.9333 14.7733 25.8667C20.5866 25.2133 25.2133 20.5867 25.8666 14.7733C27.9333 16.2133 29.2933 18.6 29.2933 21.32Z" fill="#FAAD14"/>
<path id="Vector_3" d="M15.2666 12.9467L12.0666 11.8267C11.7466 11.72 11.68 11.6933 11.68 11.2267C11.68 10.88 11.92 10.6 12.2266 10.6H14.2266C14.6533 10.6 15 10.9867 15 11.4667C15 12.0133 15.4533 12.4667 16 12.4667C16.5466 12.4667 17 12.0133 17 11.4667C17 9.93333 15.8133 8.67999 14.3333 8.61333V8.54666C14.3333 7.99999 13.88 7.54666 13.3333 7.54666C12.7866 7.54666 12.3333 7.98666 12.3333 8.54666V8.61333H12.2133C10.8133 8.61333 9.66663 9.78666 9.66663 11.24C9.66663 12.5067 10.2266 13.32 11.3866 13.72L14.6 14.84C14.92 14.9467 14.9866 14.9733 14.9866 15.44C14.9866 15.7867 14.7466 16.0667 14.44 16.0667H12.44C12.0133 16.0667 11.6666 15.68 11.6666 15.2C11.6666 14.6533 11.2133 14.2 10.6666 14.2C10.12 14.2 9.66663 14.6533 9.66663 15.2C9.66663 16.7333 10.8533 17.9867 12.3333 18.0533V18.1333C12.3333 18.68 12.7866 19.1333 13.3333 19.1333C13.88 19.1333 14.3333 18.68 14.3333 18.1333V18.0667H14.4533C15.8533 18.0667 17 16.8933 17 15.44C17 14.1733 16.4266 13.36 15.2666 12.9467Z" fill="#FAAD14"/>
</g>
</g>
</svg>
