<svg width="38" height="38" viewBox="0 0 38 38" fill="none" xmlns="http://www.w3.org/2000/svg">
<path d="M34.8333 9.04083V24.2092C34.8333 28.5792 31.2867 32.1258 26.9167 32.1258H11.0833C10.355 32.1258 9.65833 32.0308 8.9775 31.8408C7.99583 31.5717 7.67917 30.3208 8.4075 29.5925L25.2383 12.7617C25.5867 12.4133 26.1092 12.3342 26.6 12.4292C27.1067 12.5242 27.6608 12.3817 28.0567 12.0017L32.1258 7.91666C33.6142 6.42833 34.8333 6.91916 34.8333 9.04083Z" fill="url(#paint0_linear_4822_159573)"/>
<path d="M23.18 11.6534L6.60249 28.2309C5.84249 28.9909 4.57582 28.8009 4.06916 27.8509C3.48332 26.7742 3.16666 25.5234 3.16666 24.2092V9.04086C3.16666 6.9192 4.38582 6.42836 5.87416 7.9167L9.95916 12.0175C10.5767 12.6192 11.59 12.6192 12.2075 12.0175L17.8758 6.33336C18.4933 5.71586 19.5067 5.71586 20.1242 6.33336L23.1958 9.40503C23.7975 10.0225 23.7975 11.0359 23.18 11.6534Z" fill="url(#paint1_linear_4822_159573)"/>
<defs>
<linearGradient id="paint0_linear_4822_159573" x1="8.00894" y1="19.5918" x2="34.8333" y2="19.5918" gradientUnits="userSpaceOnUse">
<stop stop-color="#AC32E4"/>
<stop offset="0.48" stop-color="#7918F2"/>
<stop offset="1" stop-color="#4801FF"/>
</linearGradient>
<linearGradient id="paint1_linear_4822_159573" x1="3.16666" y1="17.285" x2="23.6451" y2="17.285" gradientUnits="userSpaceOnUse">
<stop stop-color="#AC32E4"/>
<stop offset="0.48" stop-color="#7918F2"/>
<stop offset="1" stop-color="#4801FF"/>
</linearGradient>
</defs>
</svg>
