<svg width="32" height="32" viewBox="0 0 32 32" fill="none" xmlns="http://www.w3.org/2000/svg">
<g id="vuesax/linear/messages-2">
<g id="messages-2">
<path id="Vector" d="M24.6266 22.44L25.1466 26.6533C25.28 27.76 24.0933 28.5333 23.1466 27.96L17.56 24.64C16.9466 24.64 16.3466 24.6 15.76 24.52C16.7466 23.36 17.3333 21.8933 17.3333 20.3066C17.3333 16.52 14.0533 13.4534 9.99996 13.4534C8.45329 13.4534 7.02663 13.8933 5.83997 14.6667C5.79997 14.3333 5.78662 14 5.78662 13.6533C5.78662 7.58665 11.0533 2.66667 17.56 2.66667C24.0666 2.66667 29.3333 7.58665 29.3333 13.6533C29.3333 17.2533 27.48 20.44 24.6266 22.44Z" stroke="#667888" stroke-width="1.5" stroke-linecap="round" stroke-linejoin="round"/>
<path id="Vector_2" d="M17.3333 20.3066C17.3333 21.8933 16.7466 23.36 15.76 24.52C14.44 26.12 12.3466 27.1466 9.99996 27.1466L6.51996 29.2133C5.93329 29.5733 5.18662 29.08 5.26662 28.4L5.59996 25.7734C3.81329 24.5334 2.66663 22.5466 2.66663 20.3066C2.66663 17.96 3.91997 15.8933 5.83997 14.6667C7.02663 13.8933 8.45329 13.4534 9.99996 13.4534C14.0533 13.4534 17.3333 16.52 17.3333 20.3066Z" stroke="#667888" stroke-width="1.5" stroke-linecap="round" stroke-linejoin="round"/>
</g>
</g>
</svg>
