<svg width="14" height="15" viewBox="0 0 14 15" fill="none" xmlns="http://www.w3.org/2000/svg">
<g id="vuesax/linear/copy">
<g id="copy">
<path id="Vector" d="M9.33334 8.025V10.475C9.33334 12.5167 8.51667 13.3333 6.47501 13.3333H4.02501C1.98334 13.3333 1.16667 12.5167 1.16667 10.475V8.025C1.16667 5.98334 1.98334 5.16667 4.02501 5.16667H6.47501C8.51667 5.16667 9.33334 5.98334 9.33334 8.025Z" stroke="#0066FF" stroke-width="1.5" stroke-linecap="round" stroke-linejoin="round"/>
<path id="Vector_2" d="M12.8333 4.52501V6.97501C12.8333 9.01667 12.0167 9.83334 9.97501 9.83334H9.33334V8.025C9.33334 5.98334 8.51667 5.16667 6.47501 5.16667H4.66667V4.52501C4.66667 2.48334 5.48334 1.66667 7.525 1.66667H9.97501C12.0167 1.66667 12.8333 2.48334 12.8333 4.52501Z" stroke="#0066FF" stroke-width="1.5" stroke-linecap="round" stroke-linejoin="round"/>
</g>
</g>
</svg>
