<svg width="25" height="25" viewBox="0 0 25 25" fill="none" xmlns="http://www.w3.org/2000/svg">
<g id="vuesax/bold/crown">
<g id="crown">
<path id="Vector" d="M22.4999 6.13309V15.7131C22.4999 18.4731 20.2599 20.7131 17.4999 20.7131H7.49995C7.03995 20.7131 6.59995 20.6531 6.16995 20.5331C5.54995 20.3631 5.34995 19.5731 5.80995 19.1131L16.4399 8.48309C16.6599 8.26309 16.9899 8.21309 17.2999 8.27309C17.6199 8.33309 17.9699 8.24309 18.2199 8.00309L20.7899 5.42309C21.7299 4.48309 22.4999 4.79309 22.4999 6.13309Z" fill="#FF5D01"/>
<path id="Vector_2" d="M15.14 7.7831L4.67 18.2531C4.19 18.7331 3.39 18.6131 3.07 18.0131C2.7 17.3331 2.5 16.5431 2.5 15.7131V6.1331C2.5 4.7931 3.27 4.4831 4.21 5.4231L6.79 8.0131C7.18 8.3931 7.82 8.3931 8.21 8.0131L11.79 4.4231C12.18 4.0331 12.82 4.0331 13.21 4.4231L15.15 6.3631C15.53 6.7531 15.53 7.3931 15.14 7.7831Z" fill="#FF5D01"/>
</g>
</g>
</svg>
