<svg width="24" height="25" viewBox="0 0 24 25" fill="none" xmlns="http://www.w3.org/2000/svg">
<path d="M21.21 13.74L14.36 21.28C13.06 22.71 10.94 22.71 9.64 21.28L2.79 13.74C2.02 12.89 1.77 11.35 2.23 10.3L3.03 8.5H20.97L21.77 10.3C22.23 11.35 21.98 12.89 21.21 13.74Z" fill="url(#paint0_linear_5291_1976)"/>
<path d="M20.8394 13.4043L13.99 20.9437C12.8884 22.1554 11.1116 22.1554 10.01 20.9437L3.16056 13.4043C3.16045 13.4042 3.16035 13.4041 3.16024 13.404C2.8537 13.0654 2.63158 12.5639 2.54226 12.0147C2.45299 11.4659 2.5046 10.92 2.68748 10.5018L3.35494 9H20.6451L21.312 10.5006C21.3122 10.501 21.3123 10.5013 21.3125 10.5017C21.4954 10.9199 21.547 11.4658 21.4577 12.0147C21.3684 12.564 21.1462 13.0657 20.8395 13.4042C20.8395 13.4043 20.8395 13.4043 20.8394 13.4043Z" stroke="black" stroke-opacity="0.1"/>
<g opacity="0.4">
<path d="M20.97 8.5H3.03L4.78999 4.54C5.25999 3.5 6 2.65 7.7 2.65H16.3C18 2.65 18.74 3.5 19.21 4.54L20.97 8.5Z" fill="url(#paint1_linear_5291_1976)"/>
<path d="M18.7544 4.74591L20.2006 8H3.79938L5.24626 4.7445C5.46321 4.26482 5.72171 3.87677 6.08392 3.60487C6.43902 3.3383 6.9385 3.15 7.7 3.15H16.3C17.0615 3.15 17.561 3.3383 17.9161 3.60487C18.2783 3.87677 18.5368 4.26481 18.7537 4.74449C18.7539 4.74496 18.7542 4.74544 18.7544 4.74591Z" stroke="black" stroke-opacity="0.5"/>
</g>
<defs>
<linearGradient id="paint0_linear_5291_1976" x1="12" y1="22.1166" x2="12" y2="8.73588" gradientUnits="userSpaceOnUse">
<stop stop-color="#ACCBEE"/>
<stop offset="1" stop-color="#E7F0FD"/>
</linearGradient>
<linearGradient id="paint1_linear_5291_1976" x1="12" y1="8.40039" x2="12" y2="2.74961" gradientUnits="userSpaceOnUse">
<stop stop-color="#ACCBEE"/>
<stop offset="1" stop-color="#E7F0FD"/>
</linearGradient>
</defs>
</svg>
