<svg width="24" height="24" viewBox="0 0 24 24" fill="none" xmlns="http://www.w3.org/2000/svg">
<defs>
<linearGradient id="paint0_linear_1553_5331" x1="14.68" y1="5.41757" x2="21.4831" y2="5.41757" gradientUnits="userSpaceOnUse">
<stop stop-color="#FF5D01"/>
<stop offset="1" stop-color="#F58634"/>
</linearGradient>
<linearGradient id="paint1_linear_1553_5331" x1="2.5" y1="12" x2="21.5" y2="12" gradientUnits="userSpaceOnUse">
<stop stop-color="#FF5D01"/>
<stop offset="1" stop-color="#F58634"/>
</linearGradient>
</defs>
<g id="vuesax/bold/document-text">
<g id="document-text">
<path id="Vector" d="M15.8 2.21C15.39 1.8 14.68 2.08 14.68 2.65V6.14C14.68 7.6 15.92 8.81 17.43 8.81C18.38 8.82 19.7 8.82 20.83 8.82C21.4 8.82 21.7 8.15 21.3 7.75C19.86 6.3 17.28 3.69 15.8 2.21Z" fill="url(#paint0_linear_1553_5331)"/>
<path id="Vector_2" d="M20.5 10.19H17.61C15.24 10.19 13.31 8.26 13.31 5.89V3C13.31 2.45 12.86 2 12.31 2H8.07C4.99 2 2.5 4 2.5 7.57V16.43C2.5 20 4.99 22 8.07 22H15.93C19.01 22 21.5 20 21.5 16.43V11.19C21.5 10.64 21.05 10.19 20.5 10.19ZM11.5 17.75H7.5C7.09 17.75 6.75 17.41 6.75 17C6.75 16.59 7.09 16.25 7.5 16.25H11.5C11.91 16.25 12.25 16.59 12.25 17C12.25 17.41 11.91 17.75 11.5 17.75ZM13.5 13.75H7.5C7.09 13.75 6.75 13.41 6.75 13C6.75 12.59 7.09 12.25 7.5 12.25H13.5C13.91 12.25 14.25 12.59 14.25 13C14.25 13.41 13.91 13.75 13.5 13.75Z" fill="url(#paint1_linear_1553_5331)"/>
</g>
</g>
</svg>
