<svg width="24" height="24" viewBox="0 0 24 24" fill="none" xmlns="http://www.w3.org/2000/svg">
<defs>
<linearGradient id="paint0_linear_516_8780" x1="2.00307" y1="12.0015" x2="21.9969" y2="12.0015" gradientUnits="userSpaceOnUse">
<stop stop-color="#FF5D01"/>
<stop offset="1" stop-color="#F58634"/>
</linearGradient>
<linearGradient id="paint1_linear_516_8780" x1="8.12" y1="12" x2="15.88" y2="12" gradientUnits="userSpaceOnUse">
<stop stop-color="#FF5D01"/>
<stop offset="1" stop-color="#F58634"/>
</linearGradient>
</defs>
<g id="vuesax/bulk/discover">
<g id="discover">
<path id="Vector" opacity="0.4" d="M20.98 3.02001C20.11 2.15001 18.88 1.81001 17.69 2.11001L7.89 4.56001C6.24 4.97001 4.97 6.25001 4.56 7.89001L2.11 17.7C1.81 18.89 2.15 20.12 3.02 20.99C3.68 21.64 4.55 22 5.45 22C5.73 22 6.02 21.97 6.3 21.89L16.11 19.44C17.75 19.03 19.03 17.76 19.44 16.11L21.89 6.30001C22.19 5.11001 21.85 3.88001 20.98 3.02001Z" fill="url(#paint0_linear_516_8780)"/>
<path id="Vector_2" d="M12 15.88C14.1429 15.88 15.88 14.1429 15.88 12C15.88 9.85713 14.1429 8.12 12 8.12C9.85713 8.12 8.12 9.85713 8.12 12C8.12 14.1429 9.85713 15.88 12 15.88Z" fill="url(#paint1_linear_516_8780)"/>
</g>
</g>
</svg>
