<svg width="24" height="25" viewBox="0 0 24 25" fill="none" xmlns="http://www.w3.org/2000/svg">
<g id="vuesax/outline/emoji-happy">
<g id="emoji-happy">
<path id="Vector" d="M15 22.75H9C6.3424 22.75 4.56492 22.1803 3.4423 21.0577C2.31968 19.9351 1.75 18.1576 1.75 15.5V9.5C1.75 6.8424 2.31968 5.06492 3.4423 3.9423C4.56492 2.81968 6.3424 2.25 9 2.25H15C17.6576 2.25 19.4351 2.81968 20.5577 3.9423C21.6803 5.06492 22.25 6.8424 22.25 9.5V15.5C22.25 18.1576 21.6803 19.9351 20.5577 21.0577C19.4351 22.1803 17.6576 22.75 15 22.75ZM9 2.75C6.65972 2.75 4.92432 3.16107 3.7927 4.2927C2.66107 5.42432 2.25 7.15972 2.25 9.5V15.5C2.25 17.8403 2.66107 19.5757 3.7927 20.7073C4.92432 21.8389 6.65972 22.25 9 22.25H15C17.3403 22.25 19.0757 21.8389 20.2073 20.7073C21.3389 19.5757 21.75 17.8403 21.75 15.5V9.5C21.75 7.15972 21.3389 5.42432 20.2073 4.2927C19.0757 3.16107 17.3403 2.75 15 2.75H9Z" fill="#292D32" stroke="#1D2022"/>
<path id="Vector_2" d="M15.5 10.5C14.5361 10.5 13.75 9.71386 13.75 8.75C13.75 7.78614 14.5361 7 15.5 7C16.4639 7 17.25 7.78614 17.25 8.75C17.25 9.71386 16.4639 10.5 15.5 10.5ZM15.5 7.5C14.8139 7.5 14.25 8.06386 14.25 8.75C14.25 9.43614 14.8139 10 15.5 10C16.1861 10 16.75 9.43614 16.75 8.75C16.75 8.06386 16.1861 7.5 15.5 7.5Z" fill="#292D32" stroke="#1D2022"/>
<path id="Vector_3" d="M8.5 10.5C7.53614 10.5 6.75 9.71386 6.75 8.75C6.75 7.78614 7.53614 7 8.5 7C9.46386 7 10.25 7.78614 10.25 8.75C10.25 9.71386 9.46386 10.5 8.5 10.5ZM8.5 7.5C7.81386 7.5 7.25 8.06386 7.25 8.75C7.25 9.43614 7.81386 10 8.5 10C9.18614 10 9.75 9.43614 9.75 8.75C9.75 8.06386 9.18614 7.5 8.5 7.5Z" fill="#292D32" stroke="#1D2022"/>
<path id="Vector_4" d="M12 19.95C9.1 19.95 6.75 17.59 6.75 14.7C6.75 13.79 7.49 13.05 8.4 13.05H15.6C16.51 13.05 17.25 13.79 17.25 14.7C17.25 17.59 14.9 19.95 12 19.95ZM8.4 14.55C8.32 14.55 8.25 14.62 8.25 14.7C8.25 16.77 9.93 18.45 12 18.45C14.07 18.45 15.75 16.77 15.75 14.7C15.75 14.62 15.68 14.55 15.6 14.55H8.4Z" fill="#292D32"/>
</g>
</g>
</svg>
