<svg width="16" height="16" viewBox="0 0 16 16" fill="none" xmlns="http://www.w3.org/2000/svg">
<g id="vuesax/bold/edit-2">
<g id="edit-2">
<path id="Vector" d="M14 14.6666H2C1.72667 14.6666 1.5 14.44 1.5 14.1666C1.5 13.8933 1.72667 13.6666 2 13.6666H14C14.2733 13.6666 14.5 13.8933 14.5 14.1666C14.5 14.44 14.2733 14.6666 14 14.6666Z" fill="#667888"/>
<path id="Vector_2" d="M12.68 2.31994C11.3867 1.02661 10.12 0.993275 8.79333 2.31994L7.98667 3.12661C7.92 3.19328 7.89333 3.29994 7.92 3.39328C8.42667 5.15994 9.84 6.57328 11.6067 7.07994C11.6333 7.08661 11.66 7.09328 11.6867 7.09328C11.76 7.09328 11.8267 7.06661 11.88 7.01328L12.68 6.20661C13.34 5.55328 13.66 4.91994 13.66 4.27994C13.6667 3.61994 13.3467 2.97994 12.68 2.31994Z" fill="#667888"/>
<path id="Vector_3" d="M10.4067 7.68666C10.2133 7.59332 10.0267 7.49999 9.84667 7.39333C9.7 7.30666 9.56 7.21333 9.42 7.11333C9.30667 7.03999 9.17333 6.93333 9.04667 6.82666C9.03333 6.81999 8.98667 6.77999 8.93333 6.72666C8.71333 6.53999 8.46667 6.29999 8.24667 6.03333C8.22667 6.01999 8.19333 5.97333 8.14667 5.91333C8.08 5.83333 7.96667 5.69999 7.86667 5.54666C7.78667 5.44666 7.69333 5.29999 7.60667 5.15333C7.5 4.97333 7.40667 4.79333 7.31333 4.60666C7.19096 4.34443 6.84679 4.26653 6.64217 4.47115L2.89333 8.21999C2.80667 8.30666 2.72667 8.47333 2.70667 8.58666L2.34667 11.14C2.28 11.5933 2.40667 12.02 2.68667 12.3067C2.92667 12.54 3.26 12.6667 3.62 12.6667C3.7 12.6667 3.78 12.66 3.86 12.6467L6.42 12.2867C6.54 12.2667 6.70667 12.1867 6.78667 12.1L10.5417 8.34497C10.7422 8.14444 10.6669 7.79942 10.4067 7.68666Z" fill="#667888"/>
</g>
</g>
</svg>
