<svg width="19" height="18" viewBox="0 0 19 18" fill="none" xmlns="http://www.w3.org/2000/svg">
<g id="Facebook Logo" clip-path="url(#clip0_58_4169)">
<rect width="18" height="18" transform="translate(0.5)" fill="#1877F2"/>
<path id="path14" d="M17.9505 8.96282C17.9505 4.24652 14.1272 0.423214 9.41088 0.423214C4.69458 0.423214 0.871277 4.24652 0.871277 8.96282C0.871277 13.2252 3.99409 16.758 8.07657 17.3987V11.4313H5.90831V8.96282H8.07657V7.08144C8.07657 4.9412 9.35147 3.759 11.3021 3.759C12.2364 3.759 13.2137 3.92579 13.2137 3.92579V6.02733H12.1368C11.076 6.02733 10.7452 6.6856 10.7452 7.36093V8.96282H13.1136L12.735 11.4313H10.7452V17.3987C14.8277 16.758 17.9505 13.2252 17.9505 8.96282Z" fill="white"/>
</g>
<defs>
<clipPath id="clip0_58_4169">
<rect width="18" height="18" fill="white" transform="translate(0.5)"/>
</clipPath>
</defs>
</svg>
