<svg width="24" height="24" viewBox="0 0 24 24" fill="none" xmlns="http://www.w3.org/2000/svg">
<g id="Group">
<path id="Shape" fill-rule="evenodd" clip-rule="evenodd" d="M22.88 12.2576C22.88 11.454 22.8079 10.6813 22.6739 9.93945H12V14.3234H18.0994C17.8367 15.7401 17.0382 16.9404 15.8379 17.744V20.5877H19.5006C21.6436 18.6146 22.88 15.7092 22.88 12.2576Z" fill="#4285F4"/>
<path id="Shape_2" fill-rule="evenodd" clip-rule="evenodd" d="M12 23.3333C15.06 23.3333 17.6255 22.3185 19.5006 20.5876L15.8379 17.7439C14.823 18.4239 13.5248 18.8258 12 18.8258C9.04817 18.8258 6.54968 16.8321 5.65847 14.1533H1.8721V17.0897C3.73695 20.7936 7.56969 23.3333 12 23.3333Z" fill="#34A853"/>
<path id="Shape_3" fill-rule="evenodd" clip-rule="evenodd" d="M5.65847 14.1532C5.4318 13.4732 5.30301 12.7468 5.30301 11.9999C5.30301 11.2529 5.4318 10.5265 5.65847 9.84652V6.91016H1.8721C1.10452 8.44016 0.666641 10.1711 0.666641 11.9999C0.666641 13.8287 1.10452 15.5596 1.8721 17.0896L5.65847 14.1532Z" fill="#FBBC05"/>
<path id="Shape_4" fill-rule="evenodd" clip-rule="evenodd" d="M12 5.17409C13.6639 5.17409 15.1579 5.74591 16.3324 6.86894L19.583 3.61833C17.6203 1.78954 15.0548 0.666504 12 0.666504C7.56969 0.666504 3.73695 3.20621 1.8721 6.91015L5.65847 9.84652C6.54968 7.16773 9.04817 5.17409 12 5.17409Z" fill="#EA4335"/>
</g>
</svg>
