<svg width="24" height="25" viewBox="0 0 24 25" fill="none" xmlns="http://www.w3.org/2000/svg">
<defs>
<linearGradient id="paint0_linear_1788_12907" x1="4" y1="16.9231" x2="20" y2="16.9231" gradientUnits="userSpaceOnUse">
<stop stop-color="#0BA360"/>
<stop offset="1" stop-color="#3CBA92"/>
</linearGradient>
<linearGradient id="paint1_linear_1788_12907" x1="2.5" y1="7.9231" x2="21.5" y2="7.9231" gradientUnits="userSpaceOnUse">
<stop stop-color="#0BA360"/>
<stop offset="1" stop-color="#3CBA92"/>
</linearGradient>
<linearGradient id="paint2_linear_1788_12907" x1="5.87231" y1="3.92435" x2="11.64" y2="3.92435" gradientUnits="userSpaceOnUse">
<stop stop-color="#0BA360"/>
<stop offset="1" stop-color="#3CBA92"/>
</linearGradient>
<linearGradient id="paint3_linear_1788_12907" x1="12.35" y1="3.92435" x2="18.1177" y2="3.92435" gradientUnits="userSpaceOnUse">
<stop stop-color="#0BA360"/>
<stop offset="1" stop-color="#3CBA92"/>
</linearGradient>
<linearGradient id="paint4_linear_1788_12907" x1="8.93994" y1="13.9968" x2="14.9699" y2="13.9968" gradientUnits="userSpaceOnUse">
<stop stop-color="#0BA360"/>
<stop offset="1" stop-color="#3CBA92"/>
</linearGradient>
</defs>
<g id="vuesax/bold/gift">
<path id="Vector" d="M20 12.4231V18.4231C20 20.6331 18.21 22.4231 16 22.4231H8C5.79 22.4231 4 20.6331 4 18.4231V12.4231C4 11.8731 4.45 11.4231 5 11.4231H6.97C7.52 11.4231 7.97 11.8731 7.97 12.4231V15.5631C7.97 16.3031 8.38 16.9831 9.03 17.3331C9.32 17.4931 9.64 17.5731 9.97 17.5731C10.35 17.5731 10.73 17.4631 11.06 17.2431L12.01 16.6231L12.89 17.2131C13.5 17.6231 14.28 17.6731 14.93 17.3231C15.59 16.9731 16 16.3031 16 15.5531V12.4231C16 11.8731 16.45 11.4231 17 11.4231H19C19.55 11.4231 20 11.8731 20 12.4231Z" fill="url(#paint0_linear_1788_12907)"/>
<path id="Vector_2" d="M21.5 7.4231V8.4231C21.5 9.5231 20.97 10.4231 19.5 10.4231H4.5C2.97 10.4231 2.5 9.5231 2.5 8.4231V7.4231C2.5 6.3231 2.97 5.4231 4.5 5.4231H19.5C20.97 5.4231 21.5 6.3231 21.5 7.4231Z" fill="url(#paint1_linear_1788_12907)"/>
<path id="Vector_3" d="M11.64 5.4231H6.12003C5.78003 5.0531 5.79003 4.4831 6.15003 4.1231L7.57003 2.7031C7.94003 2.3331 8.55003 2.3331 8.92003 2.7031L11.64 5.4231Z" fill="url(#paint2_linear_1788_12907)"/>
<path id="Vector_4" d="M17.87 5.4231H12.35L15.07 2.7031C15.44 2.3331 16.05 2.3331 16.42 2.7031L17.84 4.1231C18.2 4.4831 18.21 5.0531 17.87 5.4231Z" fill="url(#paint3_linear_1788_12907)"/>
<path id="Vector_5" d="M13.9699 11.4231C14.5199 11.4231 14.9699 11.8731 14.9699 12.4231V15.5531C14.9699 16.3531 14.0799 16.8331 13.4199 16.3831L12.5199 15.7831C12.1899 15.5631 11.7599 15.5631 11.4199 15.7831L10.4799 16.4031C9.81994 16.8431 8.93994 16.3631 8.93994 15.5731V12.4231C8.93994 11.8731 9.38994 11.4231 9.93994 11.4231H13.9699Z" fill="url(#paint4_linear_1788_12907)"/>
</g>
</svg>
