<svg width="56" height="56" viewBox="0 0 56 56" fill="none" xmlns="http://www.w3.org/2000/svg">
<defs>
<linearGradient id="paint0_linear_2329_2897" x1="4.66663" y1="28" x2="51.3333" y2="28" gradientUnits="userSpaceOnUse">
<stop stop-color="#0BA360"/>
<stop offset="1" stop-color="#3CBA92"/>
</linearGradient>
<linearGradient id="paint1_linear_2329_2897" x1="16.3391" y1="27.9912" x2="39.6608" y2="27.9912" gradientUnits="userSpaceOnUse">
<stop stop-color="#0BA360"/>
<stop offset="1" stop-color="#3CBA92"/>
</linearGradient>
</defs>
<g id="vuesax/bulk/tick-circle">
<g id="tick-circle">
<path id="Vector" opacity="0.4" d="M28 51.3333C40.8866 51.3333 51.3333 40.8867 51.3333 28C51.3333 15.1134 40.8866 4.66667 28 4.66667C15.1133 4.66667 4.66663 15.1134 4.66663 28C4.66663 40.8867 15.1133 51.3333 28 51.3333Z" fill="url(#paint0_linear_2329_2897)"/>
<path id="Vector_2" d="M24.6866 36.3533C24.2199 36.3533 23.7766 36.1667 23.4499 35.84L16.8466 29.2367C16.1699 28.56 16.1699 27.44 16.8466 26.7633C17.5233 26.0867 18.6433 26.0867 19.3199 26.7633L24.6866 32.13L36.6799 20.1367C37.3566 19.46 38.4766 19.46 39.1533 20.1367C39.8299 20.8133 39.8299 21.9333 39.1533 22.61L25.9233 35.84C25.5966 36.1667 25.1533 36.3533 24.6866 36.3533Z" fill="url(#paint1_linear_2329_2897)"/>
</g>
</g>
</svg>
