<svg width="57" height="56" viewBox="0 0 57 56" fill="none" xmlns="http://www.w3.org/2000/svg">
<g id="vuesax/linear/gallery-remove">
<g id="gallery-remove">
<path id="Vector" d="M21.5 23.3333C24.0773 23.3333 26.1667 21.244 26.1667 18.6667C26.1667 16.0893 24.0773 14 21.5 14C18.9227 14 16.8333 16.0893 16.8333 18.6667C16.8333 21.244 18.9227 23.3333 21.5 23.3333Z" stroke="#D1D5DB" stroke-width="1.5" stroke-linecap="round" stroke-linejoin="round"/>
<path id="Vector_2" d="M30.8333 4.66663H21.5C9.83333 4.66663 5.16667 9.33329 5.16667 21V35C5.16667 46.6666 9.83333 51.3333 21.5 51.3333H35.5C47.1667 51.3333 51.8333 46.6666 51.8333 35V23.3333" stroke="#D1D5DB" stroke-width="1.5" stroke-linecap="round" stroke-linejoin="round"/>
<path id="Vector_3" d="M39.14 16.1933L48.1933 7.14001" stroke="#D1D5DB" stroke-width="1.5" stroke-linecap="round"/>
<path id="Vector_4" d="M48.1933 16.1933L39.14 7.14001" stroke="#D1D5DB" stroke-width="1.5" stroke-linecap="round"/>
<path id="Vector_5" d="M6.73 44.2166L18.2333 36.4933C20.0767 35.2566 22.7367 35.3966 24.3933 36.82L25.1633 37.4966C26.9833 39.06 29.9233 39.06 31.7433 37.4966L41.45 29.1666C43.27 27.6033 46.21 27.6033 48.03 29.1666L51.8333 32.4333" stroke="#D1D5DB" stroke-width="1.5" stroke-linecap="round" stroke-linejoin="round"/>
</g>
</g>
</svg>
