<svg width="21" height="20" viewBox="0 0 21 20" fill="none" xmlns="http://www.w3.org/2000/svg">
<g id="vuesax/linear/gallery-export">
<g id="gallery-export">
<path id="Vector" d="M8 8.33333C8.92048 8.33333 9.66667 7.58714 9.66667 6.66667C9.66667 5.74619 8.92048 5 8 5C7.07953 5 6.33334 5.74619 6.33334 6.66667C6.33334 7.58714 7.07953 8.33333 8 8.33333Z" stroke="#FF5D01" stroke-width="1.5" stroke-linecap="round" stroke-linejoin="round"/>
<path id="Vector_2" d="M11.3333 1.66663H8C3.83333 1.66663 2.16666 3.33329 2.16666 7.49996V12.5C2.16666 16.6666 3.83333 18.3333 8 18.3333H13C17.1667 18.3333 18.8333 16.6666 18.8333 12.5V8.33329" stroke="#FF5D01" stroke-width="1.5" stroke-linecap="round" stroke-linejoin="round"/>
<path id="Vector_3" d="M15.5 6.66663V1.66663L17.1667 3.33329" stroke="#FF5D01" stroke-width="1.5" stroke-linecap="round" stroke-linejoin="round"/>
<path id="Vector_4" d="M15.5 1.66663L13.8333 3.33329" stroke="#FF5D01" stroke-width="1.5" stroke-linecap="round" stroke-linejoin="round"/>
<path id="Vector_5" d="M2.725 15.7917L6.83333 13.0333C7.49167 12.5917 8.44167 12.6417 9.03333 13.15L9.30833 13.3917C9.95833 13.95 11.0083 13.95 11.6583 13.3917L15.125 10.4167C15.775 9.85834 16.825 9.85834 17.475 10.4167L18.8333 11.5833" stroke="#FF5D01" stroke-width="1.5" stroke-linecap="round" stroke-linejoin="round"/>
</g>
</g>
</svg>
