<svg width="21" height="20" viewBox="0 0 21 20" fill="none" xmlns="http://www.w3.org/2000/svg">
<g id="vuesax/linear/gameboy">
<g id="gameboy">
<path id="Vector" d="M18 5.83333V14.1667C18 16.6667 16.75 18.3333 13.8333 18.3333H7.16667C4.25 18.3333 3 16.6667 3 14.1667V5.83333C3 3.33333 4.25 1.66667 7.16667 1.66667H13.8333C16.75 1.66667 18 3.33333 18 5.83333Z" stroke="#FF5D01" stroke-width="1.5" stroke-miterlimit="10" stroke-linecap="round" stroke-linejoin="round"/>
<path id="Vector_2" d="M14.0417 9.16667H6.95833C6.15833 9.16667 5.5 8.50833 5.5 7.70833V5.625C5.5 4.825 6.15833 4.16667 6.95833 4.16667H14.0417C14.8417 4.16667 15.5 4.825 15.5 5.625V7.70833C15.5 8.50833 14.8417 9.16667 14.0417 9.16667Z" stroke="#FF5D01" stroke-width="1.5" stroke-miterlimit="10" stroke-linecap="round" stroke-linejoin="round"/>
<path id="Vector_3" d="M9.08328 12.7334L7.16663 14.65" stroke="#FF5D01" stroke-width="1.5" stroke-miterlimit="10" stroke-linecap="round" stroke-linejoin="round"/>
<path id="Vector_4" d="M7.19165 12.7583L9.10831 14.675" stroke="#FF5D01" stroke-width="1.5" stroke-miterlimit="10" stroke-linecap="round" stroke-linejoin="round"/>
<path id="Vector_5" d="M14.2417 12.775H14.2584" stroke="#FF5D01" stroke-width="2" stroke-miterlimit="10" stroke-linecap="round" stroke-linejoin="round"/>
<path id="Vector_6" d="M12.575 14.5833V14.5667" stroke="#FF5D01" stroke-width="2" stroke-miterlimit="10" stroke-linecap="round" stroke-linejoin="round"/>
</g>
</g>
</svg>
