<svg width="24" height="24" viewBox="0 0 24 24" fill="none" xmlns="http://www.w3.org/2000/svg">
<g id="vuesax/outline/gallery-edit">
<g id="gallery-edit">
<path id="Vector" d="M9 10.25C7.75614 10.25 6.75 9.24386 6.75 8C6.75 6.75614 7.75614 5.75 9 5.75C10.2439 5.75 11.25 6.75614 11.25 8C11.25 9.24386 10.2439 10.25 9 10.25ZM9 6.25C8.03386 6.25 7.25 7.03386 7.25 8C7.25 8.96614 8.03386 9.75 9 9.75C9.96614 9.75 10.75 8.96614 10.75 8C10.75 7.03386 9.96614 6.25 9 6.25Z" fill="white" stroke="white"/>
<path id="Vector_2" d="M15 22.25H9C6.3424 22.25 4.56492 21.6803 3.4423 20.5577C2.31968 19.4351 1.75 17.6576 1.75 15V9C1.75 6.3424 2.31968 4.56492 3.4423 3.4423C4.56492 2.31968 6.3424 1.75 9 1.75H13C13.1339 1.75 13.25 1.86614 13.25 2C13.25 2.13386 13.1339 2.25 13 2.25H9C6.65972 2.25 4.92432 2.66107 3.7927 3.7927C2.66107 4.92432 2.25 6.65972 2.25 9V15C2.25 17.3403 2.66107 19.0757 3.7927 20.2073C4.92432 21.3389 6.65972 21.75 9 21.75H15C17.3403 21.75 19.0757 21.3389 20.2073 20.2073C21.3389 19.0757 21.75 17.3403 21.75 15V10C21.75 9.86614 21.8661 9.75 22 9.75C22.1339 9.75 22.25 9.86614 22.25 10V15C22.25 17.6576 21.6803 19.4351 20.5577 20.5577C19.4351 21.6803 17.6576 22.25 15 22.25Z" fill="white" stroke="white"/>
<path id="Vector_3" d="M15.67 9.75C15.28 9.75 14.92 9.61 14.66 9.34C14.35 9.03 14.2 8.57 14.27 8.1L14.47 6.71C14.52 6.36 14.73 5.93 14.99 5.68L18.62 2.05C20.07 0.6 21.33 1.43 21.95 2.05C22.54 2.64 22.81 3.26 22.75 3.9C22.7 4.41 22.44 4.9 21.95 5.38L18.32 9.01C18.07 9.26 17.64 9.47 17.29 9.53L15.9 9.73C15.82 9.75 15.74 9.75 15.67 9.75ZM19.67 3.12L16.04 6.75C16.01 6.78 15.96 6.89 15.95 6.94L15.76 8.24L17.07 8.06C17.11 8.05 17.22 8 17.26 7.96L20.89 4.33C21.11 4.11 21.24 3.91 21.25 3.76C21.27 3.55 21.06 3.29 20.89 3.12C20.37 2.6 20.13 2.66 19.67 3.12Z" fill="white"/>
<path id="Vector_4" d="M20.9 6.13001C20.83 6.13001 20.76 6.12001 20.7 6.10001C19.36 5.72001 18.29 4.65001 17.91 3.31001C17.8 2.91001 18.03 2.50001 18.43 2.39001C18.83 2.28001 19.24 2.51001 19.35 2.91001C19.59 3.75001 20.26 4.43001 21.11 4.67001C21.51 4.78001 21.74 5.20001 21.63 5.59001C21.52 5.91001 21.22 6.13001 20.9 6.13001Z" fill="white"/>
<path id="Vector_5" d="M2.67 19.7C2.43 19.7 2.19 19.58 2.05 19.37C1.82 19.03 1.91 18.56 2.25 18.33L7.18 15.02C8.26 14.3 9.75 14.38 10.73 15.21L11.06 15.5C11.56 15.93 12.41 15.93 12.9 15.5L17.06 11.93C18.12 11.02 19.79 11.02 20.86 11.93L22.49 13.33C22.8 13.6 22.84 14.07 22.57 14.39C22.3 14.7 21.83 14.74 21.51 14.47L19.88 13.07C19.38 12.64 18.53 12.64 18.04 13.07L13.88 16.64C12.82 17.55 11.15 17.55 10.08 16.64L9.75 16.35C9.29 15.96 8.53 15.92 8.02 16.27L3.1 19.58C2.96 19.66 2.81 19.7 2.67 19.7Z" fill="white"/>
</g>
</g>
</svg>
