<svg width="24" height="24" viewBox="0 0 24 24" fill="none" xmlns="http://www.w3.org/2000/svg">
<defs>
<linearGradient id="paint0_linear_516_8378" x1="1.98999" y1="12.0011" x2="22.01" y2="12.0011" gradientUnits="userSpaceOnUse">
<stop stop-color="#FF5D01"/>
<stop offset="1" stop-color="#F58634"/>
</linearGradient>
<linearGradient id="paint1_linear_516_8378" x1="7.11749" y1="13.865" x2="16.89" y2="13.865" gradientUnits="userSpaceOnUse">
<stop stop-color="#FF5D01"/>
<stop offset="1" stop-color="#F58634"/>
</linearGradient>
</defs>
<g id="vuesax/bulk/home-trend-up">
<g id="home-trend-up">
<g id="home-trend-up_2">
<path id="Vector" opacity="0.4" d="M20.04 6.82L14.28 2.79C12.71 1.69 10.3 1.75 8.78999 2.92L3.77999 6.83C2.77999 7.61 1.98999 9.21 1.98999 10.47V17.37C1.98999 19.92 4.05999 22 6.60999 22H17.39C19.94 22 22.01 19.93 22.01 17.38V10.6C22.01 9.25 21.14 7.59 20.04 6.82Z" fill="url(#paint0_linear_516_8378)"/>
<path id="Vector_2" d="M16.83 11.27C16.76 11.1 16.62 10.96 16.45 10.89C16.36 10.85 16.27 10.84 16.18 10.84H14.32C13.93 10.84 13.62 11.15 13.62 11.54C13.62 11.93 13.93 12.24 14.32 12.24H14.5L12.39 14.35L11.37 12.83C11.25 12.66 11.07 12.54 10.86 12.52C10.64 12.5 10.45 12.57 10.3 12.72L7.31999 15.7C7.04999 15.97 7.04999 16.41 7.31999 16.69C7.45999 16.83 7.62999 16.89 7.80999 16.89C7.98999 16.89 8.16999 16.82 8.29999 16.69L10.68 14.31L11.7 15.83C11.82 16 12 16.12 12.21 16.14C12.43 16.16 12.62 16.09 12.77 15.94L15.49 13.22V13.4C15.49 13.79 15.8 14.1 16.19 14.1C16.58 14.1 16.89 13.79 16.89 13.4V11.54C16.88 11.44 16.87 11.35 16.83 11.27Z" fill="url(#paint1_linear_516_8378)"/>
</g>
</g>
</g>
</svg>
