<svg width="20" height="20" viewBox="0 0 20 20" fill="none" xmlns="http://www.w3.org/2000/svg">
<path d="M17.3833 6.97498L11.6083 2.35831C10.7167 1.64164 9.275 1.64164 8.39166 2.34998L2.61666 6.97498C1.96666 7.49164 1.55 8.58331 1.69166 9.39998L2.8 16.0333C3 17.2166 4.13333 18.175 5.33333 18.175H14.6667C15.8583 18.175 17 17.2083 17.2 16.0333L18.3083 9.39998C18.4417 8.58331 18.025 7.49164 17.3833 6.97498ZM10 12.9166C8.85 12.9166 7.91666 11.9833 7.91666 10.8333C7.91666 9.68331 8.85 8.74998 10 8.74998C11.15 8.74998 12.0833 9.68331 12.0833 10.8333C12.0833 11.9833 11.15 12.9166 10 12.9166Z" fill="#FF5D01"/>
</svg>
