<svg width="16" height="16" viewBox="0 0 16 16" fill="none" xmlns="http://www.w3.org/2000/svg">
<g id="vuesax/bold/heart-add">
<g id="heart-add">
<path id="Vector" d="M13.7867 9.27333V9.26666C13.2001 8.64666 12.3801 8.26666 11.4667 8.26666C9.70006 8.26666 8.26672 9.7 8.26672 11.4667C8.26672 12.2867 8.58006 13.0333 9.08672 13.6C9.67339 14.2533 10.5201 14.6667 11.4667 14.6667C13.2334 14.6667 14.6667 13.2333 14.6667 11.4667C14.6667 10.62 14.3334 9.84666 13.7867 9.27333ZM12.6601 12.0067H11.9667V12.7333C11.9667 13.0067 11.7401 13.2333 11.4667 13.2333C11.1934 13.2333 10.9667 13.0067 10.9667 12.7333V12.0067H10.2734C9.99339 12.0067 9.77339 11.7867 9.77339 11.5067C9.77339 11.2333 9.98672 11.0133 10.2667 11.0067H10.9667V10.34C10.9667 10.3267 10.9667 10.3133 10.9734 10.3C10.9867 10.0467 11.2067 9.84 11.4667 9.84C11.7334 9.84 11.9534 10.0533 11.9667 10.32V11.0067H12.6601C12.9401 11.0067 13.1601 11.2333 13.1601 11.5067C13.1601 11.7867 12.9401 12.0067 12.6601 12.0067Z" fill="#FF5D01"/>
<path id="Vector_2" d="M14.6667 5.81999C14.6667 6.61332 14.54 7.34666 14.32 8.02666C14.28 8.16666 14.1134 8.20666 13.9934 8.11999C13.2667 7.57999 12.38 7.29332 11.4667 7.29332C9.15337 7.29332 7.26671 9.17999 7.26671 11.4933C7.26671 12.2133 7.45337 12.92 7.80671 13.5467C7.91337 13.7333 7.78671 13.9733 7.58671 13.9C5.98004 13.3533 2.73337 11.36 1.68004 8.02666C1.46004 7.34666 1.33337 6.61332 1.33337 5.81999C1.33337 3.75999 2.99337 2.09332 5.04004 2.09332C6.24671 2.09332 7.32671 2.67999 8.00004 3.57999C8.67337 2.67999 9.75338 2.09332 10.96 2.09332C13.0067 2.09332 14.6667 3.75999 14.6667 5.81999Z" fill="#FF5D01"/>
</g>
</g>
</svg>