<svg width="24" height="24" viewBox="0 0 24 24" fill="none" xmlns="http://www.w3.org/2000/svg">
<g id="vuesax/outline/image">
<g id="image">
<path id="Vector" d="M8.52683 12.9989L8.52677 12.999L8.53237 13.0058C9.02174 13.6064 9.67792 14.0395 10.4148 13.968C11.1413 13.9078 11.7223 13.3932 12.1067 12.7034L12.1073 12.7024L13.9973 9.29239L13.9975 9.29203C14.7279 7.97162 15.6209 7.4222 16.4856 7.45941C17.3364 7.50607 18.1692 8.14705 18.7708 9.53794C18.7709 9.53811 18.771 9.53828 18.7711 9.53846L21.9004 16.8468L21.9006 16.8474C22.4138 18.0418 22.2906 19.4044 21.5724 20.495L21.5724 20.495L21.5689 20.5005C20.8621 21.6048 19.662 22.25 18.36 22.25H5.58999C4.24249 22.25 3.01423 21.5691 2.30582 20.418C1.59662 19.2655 1.53422 17.8688 2.13766 16.6527C2.13773 16.6526 2.13779 16.6524 2.13785 16.6523L3.8572 13.2036C3.85726 13.2035 3.85732 13.2034 3.85737 13.2033C4.36092 12.1964 5.13252 11.6344 5.93412 11.5471C6.73273 11.4601 7.60699 11.8498 8.30862 12.7212L8.52683 12.9989ZM4.30415 13.4337L4.30414 13.4336L4.30252 13.4369L2.58378 16.8844C2.58356 16.8848 2.58333 16.8853 2.5831 16.8857C2.05435 17.9327 2.11482 19.166 2.72347 20.1609C3.33553 21.1614 4.41821 21.76 5.58999 21.76H18.35C19.4988 21.76 20.5254 21.2049 21.1576 20.245C21.7891 19.2861 21.8966 18.1284 21.4391 17.0719C21.439 17.0717 21.4389 17.0714 21.4388 17.0712L18.3106 9.76551C18.3105 9.76515 18.3103 9.76479 18.3102 9.76443C18.1039 9.27612 17.8465 8.85641 17.5485 8.54773C17.2557 8.24447 16.8839 8.00948 16.4556 7.99063C16.0391 7.96634 15.6475 8.17266 15.3324 8.4369C15.0048 8.7117 14.6966 9.10028 14.4346 9.56414L14.4327 9.56761L12.5433 12.9765C12.5432 12.9767 12.543 12.9769 12.5429 12.9772C12.0264 13.9028 11.2489 14.4289 10.4572 14.5018C9.66481 14.5649 8.80817 14.1838 8.14199 13.3496L7.9252 13.0737C7.45049 12.4533 6.84012 12.05 6.15999 12.05C6.15799 12.05 6.15569 12.05 6.15311 12.05C6.12123 12.0498 6.04631 12.0495 5.96099 12.0657C5.23185 12.152 4.66564 12.7216 4.30415 13.4337Z" fill="#1D2022" stroke="#1D2022"/>
<path id="Vector_2" d="M6.96997 8.25C5.18525 8.25 3.71997 6.79299 3.71997 5C3.71997 3.20614 5.17611 1.75 6.96997 1.75C8.76383 1.75 10.22 3.20614 10.22 5C10.22 6.79386 8.76383 8.25 6.96997 8.25ZM6.96997 2.25C5.45383 2.25 4.21997 3.48386 4.21997 5C4.21997 6.51614 5.45383 7.75 6.96997 7.75C8.48611 7.75 9.71997 6.51614 9.71997 5C9.71997 3.48386 8.48611 2.25 6.96997 2.25Z" fill="#1D2022" stroke="#1D2022"/>
</g>
</g>
</svg>
