<svg width="32" height="32" viewBox="0 0 32 32" fill="none" xmlns="http://www.w3.org/2000/svg">
<g id="vuesax/linear/lovely">
<g id="lovely">
<g id="Group">
<g id="Group_2">
<path id="Vector" d="M26.4799 10.7867C26.4799 11.3467 26.44 11.8933 26.3733 12.4133C25.76 12.1467 25.0933 12 24.3866 12C22.76 12 21.32 12.7867 20.4266 13.9867C19.52 12.7867 18.08 12 16.4533 12C13.72 12 11.5066 14.2267 11.5066 16.9867C11.5066 20.56 13.4 23.2933 15.5066 25.1466C15.44 25.1866 15.3733 25.2 15.3066 25.2267C14.9066 25.3734 14.24 25.3734 13.84 25.2267C10.3866 24.04 2.66663 19.1333 2.66663 10.7867C2.66663 7.10666 5.62661 4.13334 9.27995 4.13334C11.4533 4.13334 13.3733 5.17333 14.5733 6.78666C15.7866 5.17333 17.7066 4.13334 19.8666 4.13334C23.52 4.13334 26.4799 7.10666 26.4799 10.7867Z" stroke="#667888" stroke-width="1.5" stroke-linecap="round" stroke-linejoin="round"/>
</g>
<g id="Group_3">
<path id="Vector_2" d="M29.3333 16.9867C29.3333 23.2267 23.5599 26.9067 20.9733 27.7867C20.6666 27.8933 20.1732 27.8933 19.8666 27.7867C18.7599 27.4133 17.0666 26.52 15.5066 25.1466C13.3999 23.2933 11.5066 20.56 11.5066 16.9867C11.5066 14.2267 13.7199 12 16.4532 12C18.0799 12 19.5199 12.7867 20.4266 13.9867C21.3199 12.7867 22.7599 12 24.3866 12C25.0933 12 25.7599 12.1467 26.3733 12.4133C28.1199 13.1867 29.3333 14.9333 29.3333 16.9867Z" stroke="#667888" stroke-width="1.5" stroke-linecap="round" stroke-linejoin="round"/>
</g>
</g>
</g>
</g>
</svg>
