<svg width="16" height="16" viewBox="0 0 16 16" fill="none" xmlns="http://www.w3.org/2000/svg">
<path d="M10.9466 4.28V5.05333L6.09322 9.90667C5.45322 9.32667 5.05322 8.47333 5.05322 7.56V4.28C5.05322 2.90667 5.98656 1.76667 7.25322 1.44C7.37989 1.40667 7.49989 1.51333 7.49989 1.64V2.66667C7.49989 2.94 7.72656 3.16667 7.99989 3.16667C8.27322 3.16667 8.49989 2.94 8.49989 2.66667V1.64C8.49989 1.51333 8.61989 1.40667 8.74656 1.44C10.0132 1.76667 10.9466 2.90667 10.9466 4.28Z" fill="white"/>
<path d="M13.2068 6.54V7.6C13.2068 10.3133 11.1202 12.5467 8.46684 12.78V14.2C8.46684 14.46 8.26017 14.6667 8.00017 14.6667C7.74017 14.6667 7.5335 14.46 7.5335 14.2V12.78C6.80684 12.7133 6.12017 12.5 5.50684 12.16L6.1935 11.4733C6.74017 11.7267 7.3535 11.8733 8.00017 11.8733C10.3602 11.8733 12.2802 9.95334 12.2802 7.6V6.54C12.2802 6.28667 12.4868 6.08 12.7468 6.08C13.0002 6.08 13.2068 6.28667 13.2068 6.54Z" fill="white"/>
<path d="M10.9468 6.72V7.68667C10.9468 9.40667 9.46682 10.7867 7.70682 10.62C7.52016 10.6 7.33349 10.5667 7.16016 10.5067L10.9468 6.72Z" fill="white"/>
<path d="M14.5134 1.48667C14.3134 1.28667 13.9867 1.28667 13.7867 1.48667L4.82008 10.4533C4.13341 9.7 3.72008 8.7 3.72008 7.6V6.54C3.72008 6.28667 3.51341 6.08 3.25341 6.08C3.00008 6.08 2.79341 6.28667 2.79341 6.54V7.6C2.79341 8.95333 3.31341 10.1867 4.16008 11.1133L1.48008 13.7933C1.28008 13.9933 1.28008 14.32 1.48008 14.52C1.58674 14.6133 1.71341 14.6667 1.84674 14.6667C1.98008 14.6667 2.10674 14.6133 2.20674 14.5133L14.5134 2.20667C14.7201 2.00667 14.7201 1.68667 14.5134 1.48667Z" fill="white"/>
</svg>
