<svg width="16" height="16" viewBox="0 0 16 16" fill="none" xmlns="http://www.w3.org/2000/svg">
<g id="vuesax/bulk/music-play">
<g id="music-play">
<g id="Group">
<path id="Vector" d="M7.38948 4.8502L8.22118 6.51359L7.64696 5.36911L7.37506 4.82721C7.38018 4.83441 7.385 4.84207 7.38948 4.8502ZM9.36114 6.49212L9.46114 6.28919C9.46748 6.27658 9.47432 6.26447 9.48162 6.25286L9.43349 6.34845L9.36114 6.49212Z" fill="#FF5D01" stroke="#FF5D01"/>
</g>
<g id="Group_2">
<path id="Vector_2" opacity="0.4" d="M1.83333 8.12873L1.83325 8.12411C1.82057 7.43707 1.91801 6.76642 2.11739 6.13265C1.91887 6.76622 1.82194 7.43678 1.83333 8.12422V8.12873Z" fill="#FF5D01" stroke="#FF5D01"/>
<g id="Group_3">
<path id="Vector_3" d="M3.87337 8.8H3.96004C5.0839 8.8 6.00004 9.71614 6.00004 10.84V12.0933C6.00004 13.2172 5.0839 14.1333 3.96004 14.1333H3.87337C2.74951 14.1333 1.83337 13.2172 1.83337 12.0933V10.84C1.83337 9.71614 2.74951 8.8 3.87337 8.8Z" fill="#FF5D01" stroke="#FF5D01"/>
<path id="Vector_4" d="M12.1267 8.3H12.04C10.64 8.3 9.5 9.44 9.5 10.84V12.0933C9.5 13.4933 10.64 14.6333 12.04 14.6333H12.1267C13.5267 14.6333 14.6667 13.4933 14.6667 12.0933V10.84C14.6667 9.44 13.5267 8.3 12.1267 8.3Z" fill="#FF5D01"/>
</g>
</g>
</g>
</g>
</svg>
