<svg width="16" height="16" viewBox="0 0 16 16" fill="none" xmlns="http://www.w3.org/2000/svg">
<defs>
<linearGradient id="paint0_linear_656_475" x1="2.78668" y1="10.37" x2="13.2133" y2="10.37" gradientUnits="userSpaceOnUse">
<stop stop-color="#AC32E4"/>
<stop offset="0.48" stop-color="#7918F2"/>
<stop offset="1" stop-color="#4801FF"/>
</linearGradient>
<linearGradient id="paint1_linear_656_475" x1="5.05334" y1="5.98666" x2="10.9467" y2="5.98666" gradientUnits="userSpaceOnUse">
<stop stop-color="#AC32E4"/>
<stop offset="0.48" stop-color="#7918F2"/>
<stop offset="1" stop-color="#4801FF"/>
</linearGradient>
</defs>
<g id="vuesax/bold/microphone-2">
<g id="microphone-2">
<path id="Vector" d="M12.7467 6.08C12.4867 6.08 12.28 6.28667 12.28 6.54667V7.6C12.28 9.96 10.36 11.88 8.00002 11.88C5.64002 11.88 3.72002 9.96 3.72002 7.6V6.54C3.72002 6.28 3.51335 6.07333 3.25335 6.07333C2.99335 6.07333 2.78668 6.28 2.78668 6.54V7.59333C2.78668 10.3067 4.87335 12.54 7.53335 12.78V14.2C7.53335 14.46 7.74002 14.6667 8.00002 14.6667C8.26002 14.6667 8.46668 14.46 8.46668 14.2V12.78C11.12 12.5467 13.2133 10.3067 13.2133 7.59333V6.54C13.2067 6.28667 13 6.08 12.7467 6.08Z" fill="url(#paint0_linear_656_475)"/>
<path id="Vector_2" d="M8.00001 1.33333C6.37334 1.33333 5.05334 2.65333 5.05334 4.28V7.69333C5.05334 9.32 6.37334 10.64 8.00001 10.64C9.62668 10.64 10.9467 9.32 10.9467 7.69333V4.28C10.9467 2.65333 9.62668 1.33333 8.00001 1.33333ZM8.87335 5.96666C8.82668 6.13999 8.67334 6.25333 8.50001 6.25333C8.46668 6.25333 8.43335 6.24666 8.40001 6.23999C8.14001 6.16666 7.86668 6.16666 7.60668 6.23999C7.39334 6.29999 7.18668 6.17333 7.13334 5.96666C7.07334 5.75999 7.20001 5.54666 7.40668 5.49333C7.80001 5.38666 8.21334 5.38666 8.60668 5.49333C8.80668 5.54666 8.92668 5.75999 8.87335 5.96666ZM9.22668 4.67333C9.16668 4.83333 9.02001 4.92666 8.86001 4.92666C8.81334 4.92666 8.77334 4.92 8.72668 4.90666C8.26001 4.73333 7.74001 4.73333 7.27334 4.90666C7.07334 4.98 6.84668 4.87333 6.77334 4.67333C6.70001 4.47333 6.80668 4.24666 7.00668 4.17999C7.64668 3.94666 8.35334 3.94666 8.99334 4.17999C9.19334 4.25333 9.30001 4.47333 9.22668 4.67333Z" fill="url(#paint1_linear_656_475)"/>
</g>
</g>
</svg>
