<svg width="32" height="33" viewBox="0 0 32 33" fill="none" xmlns="http://www.w3.org/2000/svg">
<g id="vuesax/linear/category">
<g id="category">
<path id="Vector" d="M6.66669 13.8333H9.33335C12 13.8333 13.3334 12.5 13.3334 9.83333V7.16667C13.3334 4.5 12 3.16667 9.33335 3.16667H6.66669C4.00002 3.16667 2.66669 4.5 2.66669 7.16667V9.83333C2.66669 12.5 4.00002 13.8333 6.66669 13.8333Z" stroke="white" stroke-width="1.5" stroke-miterlimit="10" stroke-linecap="round" stroke-linejoin="round"/>
<path id="Vector_2" d="M22.6667 13.8333H25.3334C28 13.8333 29.3334 12.5 29.3334 9.83333V7.16667C29.3334 4.5 28 3.16667 25.3334 3.16667H22.6667C20 3.16667 18.6667 4.5 18.6667 7.16667V9.83333C18.6667 12.5 20 13.8333 22.6667 13.8333Z" stroke="white" stroke-width="1.5" stroke-miterlimit="10" stroke-linecap="round" stroke-linejoin="round"/>
<path id="Vector_3" d="M22.6667 29.8333H25.3334C28 29.8333 29.3334 28.5 29.3334 25.8333V23.1667C29.3334 20.5 28 19.1667 25.3334 19.1667H22.6667C20 19.1667 18.6667 20.5 18.6667 23.1667V25.8333C18.6667 28.5 20 29.8333 22.6667 29.8333Z" stroke="white" stroke-width="1.5" stroke-miterlimit="10" stroke-linecap="round" stroke-linejoin="round"/>
<path id="Vector_4" d="M6.66669 29.8333H9.33335C12 29.8333 13.3334 28.5 13.3334 25.8333V23.1667C13.3334 20.5 12 19.1667 9.33335 19.1667H6.66669C4.00002 19.1667 2.66669 20.5 2.66669 23.1667V25.8333C2.66669 28.5 4.00002 29.8333 6.66669 29.8333Z" stroke="white" stroke-width="1.5" stroke-miterlimit="10" stroke-linecap="round" stroke-linejoin="round"/>
</g>
</g>
</svg>
