<svg width="24" height="25" viewBox="0 0 24 25" fill="none" xmlns="http://www.w3.org/2000/svg">
<path d="M21.25 18.97L19.6 19.36C19.23 19.45 18.94 19.73 18.86 20.1L18.51 21.57C18.32 22.37 17.3 22.62 16.77 21.99L13.78 18.55C13.54 18.27 13.67 17.83 14.03 17.74C15.8 17.31 17.39 16.32 18.56 14.91C18.75 14.68 19.09 14.65 19.3 14.86L21.52 17.08C22.28 17.84 22.01 18.79 21.25 18.97Z" fill="url(#paint0_linear_5291_104)"/>
<path d="M2.69999 18.97L4.34999 19.36C4.72 19.45 5.01 19.73 5.09 20.1L5.44 21.57C5.63 22.37 6.64999 22.62 7.17999 21.99L10.17 18.55C10.41 18.27 10.28 17.83 9.91999 17.74C8.14999 17.31 6.55999 16.32 5.38999 14.91C5.19999 14.68 4.86 14.65 4.65 14.86L2.42999 17.08C1.66999 17.84 1.93999 18.79 2.69999 18.97Z" fill="url(#paint1_linear_5291_104)"/>
<path d="M12 2.5C8.13 2.5 5 5.63 5 9.5C5 10.95 5.43 12.28 6.17 13.39C7.25 14.99 8.96 16.12 10.95 16.41C11.29 16.47 11.64 16.5 12 16.5C12.36 16.5 12.71 16.47 13.05 16.41C15.04 16.12 16.75 14.99 17.83 13.39C18.57 12.28 19 10.95 19 9.5C19 5.63 15.87 2.5 12 2.5ZM15.06 9.28L14.23 10.11C14.09 10.25 14.01 10.52 14.06 10.72L14.3 11.75C14.49 12.56 14.06 12.88 13.34 12.45L12.34 11.86C12.16 11.75 11.86 11.75 11.68 11.86L10.68 12.45C9.96 12.87 9.53 12.56 9.72 11.75L9.96 10.72C10 10.53 9.93 10.25 9.79 10.11L8.94 9.28C8.45 8.79 8.61 8.3 9.29 8.19L10.36 8.01C10.54 7.98 10.75 7.82 10.83 7.66L11.42 6.48C11.74 5.84 12.26 5.84 12.58 6.48L13.17 7.66C13.25 7.82 13.46 7.98 13.65 8.01L14.72 8.19C15.39 8.3 15.55 8.79 15.06 9.28Z" fill="url(#paint2_linear_5291_104)"/>
<defs>
<linearGradient id="paint0_linear_5291_104" x1="13.658" y1="18.5319" x2="21.9726" y2="18.5319" gradientUnits="userSpaceOnUse">
<stop stop-color="#A1C4FD"/>
<stop offset="1" stop-color="#C2E9FB"/>
</linearGradient>
<linearGradient id="paint1_linear_5291_104" x1="1.97737" y1="18.5319" x2="10.292" y2="18.5319" gradientUnits="userSpaceOnUse">
<stop stop-color="#A1C4FD"/>
<stop offset="1" stop-color="#C2E9FB"/>
</linearGradient>
<linearGradient id="paint2_linear_5291_104" x1="5" y1="9.5" x2="19" y2="9.5" gradientUnits="userSpaceOnUse">
<stop stop-color="#A1C4FD"/>
<stop offset="1" stop-color="#C2E9FB"/>
</linearGradient>
</defs>
</svg>
