<svg width="56" height="56" viewBox="0 0 56 56" fill="none" xmlns="http://www.w3.org/2000/svg">
<path d="M11.6667 32.6667C6.51004 32.6667 2.33337 36.8434 2.33337 42C2.33337 47.1567 6.51004 51.3334 11.6667 51.3334C16.8234 51.3334 21 47.1567 21 42C21 36.8434 16.8234 32.6667 11.6667 32.6667ZM14 41.2533C14 42.6767 13.2301 44.03 12.0168 44.7533L10.2434 45.8267C9.96341 45.9901 9.66006 46.0834 9.35673 46.0834C8.7734 46.0834 8.19003 45.7801 7.86336 45.2434C7.37336 44.4267 7.63005 43.33 8.47005 42.84L10.2434 41.7667C10.4067 41.6734 10.5234 41.4634 10.5234 41.2767V39.1067C10.5234 38.15 11.3167 37.3567 12.2734 37.3567C13.2301 37.3567 14.0234 38.15 14.0234 39.1067V41.2533H14Z" fill="#667888"/>
<path opacity="0.4" d="M51.3333 21V35C51.3333 43.1667 46.6666 46.6667 39.6666 46.6667H19.7167C20.5333 45.29 21 43.7033 21 42C21 36.8433 16.8233 32.6667 11.6666 32.6667C8.86663 32.6667 6.36996 33.9033 4.66663 35.84V21C4.66663 12.8333 9.33329 9.33334 16.3333 9.33334H39.6666C46.6666 9.33334 51.3333 12.8333 51.3333 21Z" fill="#667888"/>
<path d="M28 33.8334C31.2216 33.8334 33.8333 31.2217 33.8333 28C33.8333 24.7784 31.2216 22.1667 28 22.1667C24.7783 22.1667 22.1666 24.7784 22.1666 28C22.1666 31.2217 24.7783 33.8334 28 33.8334Z" fill="#667888"/>
<path d="M43.1666 34.4166C42.21 34.4166 41.4166 33.6233 41.4166 32.6666V23.3333C41.4166 22.3766 42.21 21.5833 43.1666 21.5833C44.1233 21.5833 44.9166 22.3766 44.9166 23.3333V32.6666C44.9166 33.6233 44.1233 34.4166 43.1666 34.4166Z" fill="#667888"/>
</svg>
