<svg width="32" height="32" viewBox="0 0 32 32" fill="none" xmlns="http://www.w3.org/2000/svg">
<g id="vuesax/bold/microphone">
<g id="microphone">
<path id="Vector" d="M16 29.2401C9.28005 29.2401 3.80005 23.7734 3.80005 17.0401V14.5334C3.80005 14.0134 4.22672 13.6001 4.73338 13.6001C5.24005 13.6001 5.66672 14.0268 5.66672 14.5334V17.0401C5.66672 22.7334 10.2934 27.3601 15.9867 27.3601C21.68 27.3601 26.3067 22.7334 26.3067 17.0401V14.5334C26.3067 14.0134 26.7334 13.6001 27.24 13.6001C27.7467 13.6001 28.1734 14.0268 28.1734 14.5334V17.0401C28.2 23.7734 22.72 29.2401 16 29.2401Z" fill="white"/>
<path id="Vector_2" d="M16 2.6665C11.52 2.6665 7.8667 6.31984 7.8667 10.7998V17.0532C7.8667 21.5332 11.52 25.1865 16 25.1865C20.48 25.1865 24.1334 21.5332 24.1334 17.0532V10.7998C24.1334 6.31984 20.48 2.6665 16 2.6665ZM18.9067 14.1198C18.8134 14.4798 18.48 14.7198 18.12 14.7198C18.0534 14.7198 17.9734 14.7065 17.9067 14.6932C16.5467 14.3198 15.1067 14.3198 13.7467 14.6932C13.3067 14.8132 12.8667 14.5598 12.7467 14.1198C12.6267 13.6932 12.88 13.2398 13.32 13.1198C14.96 12.6665 16.6934 12.6665 18.3334 13.1198C18.7734 13.2398 19.0267 13.6798 18.9067 14.1198ZM20.04 10.4265C19.92 10.7598 19.6134 10.9598 19.28 10.9598C19.1867 10.9598 19.0934 10.9465 19 10.9065C16.96 10.1598 14.72 10.1598 12.68 10.9065C12.2534 11.0665 11.7867 10.8532 11.6267 10.4265C11.48 10.0132 11.6934 9.5465 12.12 9.3865C14.52 8.51984 17.16 8.51984 19.5467 9.3865C19.9734 9.5465 20.1867 10.0132 20.04 10.4265Z" fill="white"/>
</g>
</g>
</svg>
