<svg width="14" height="15" viewBox="0 0 14 15" fill="none" xmlns="http://www.w3.org/2000/svg">
<defs>
<linearGradient id="paint0_linear_2199_8144" x1="5.61749" y1="8.89117" x2="12.8333" y2="8.89117" gradientUnits="userSpaceOnUse">
<stop stop-color="#6A11CB"/>
<stop offset="1" stop-color="#2575FC"/>
</linearGradient>
<linearGradient id="paint1_linear_2199_8144" x1="1.16666" y1="6.37286" x2="9.91666" y2="6.37286" gradientUnits="userSpaceOnUse">
<stop stop-color="#6A11CB"/>
<stop offset="1" stop-color="#2575FC"/>
</linearGradient>
</defs>
<g id="vuesax/bold/messages">
<g id="messages">
<path id="Vector" d="M12.8333 8.00167C12.8333 9.3375 12.145 10.5217 11.0833 11.2683L10.3017 12.9892C10.1208 13.38 9.59583 13.4558 9.32166 13.1233L8.45833 12.085C7.37333 12.085 6.37583 11.7175 5.61749 11.105L5.96749 10.6908C8.66249 10.4867 10.7917 8.35167 10.7917 5.75C10.7917 5.30667 10.7275 4.86917 10.6108 4.44917C11.935 5.14917 12.8333 6.47917 12.8333 8.00167Z" fill="url(#paint0_linear_2199_8144)"/>
<path id="Vector_2" d="M9.50832 4.04083C8.82582 2.64083 7.30332 1.66666 5.54166 1.66666C3.12666 1.66666 1.16666 3.4925 1.16666 5.75C1.16666 7.08583 1.85499 8.27 2.91666 9.01666L3.69832 10.7375C3.87916 11.1283 4.40416 11.1983 4.67832 10.8717L4.99916 10.4867L5.54166 9.83333C7.95666 9.83333 9.91666 8.0075 9.91666 5.75C9.91666 5.1375 9.77082 4.56 9.50832 4.04083ZM6.99999 6.1875H4.08332C3.84416 6.1875 3.64582 5.98916 3.64582 5.75C3.64582 5.51083 3.84416 5.3125 4.08332 5.3125H6.99999C7.23916 5.3125 7.43749 5.51083 7.43749 5.75C7.43749 5.98916 7.23916 6.1875 6.99999 6.1875Z" fill="url(#paint1_linear_2199_8144)"/>
</g>
</g>
</svg>
