<svg width="20" height="20" viewBox="0 0 20 20" fill="none" xmlns="http://www.w3.org/2000/svg">
<g id="vuesax/outline/more">
<g id="more">
<path id="Vector" d="M4.16667 11.7917C3.17614 11.7917 2.375 10.9906 2.375 10C2.375 9.00952 3.17614 8.20837 4.16667 8.20837C5.15719 8.20837 5.95833 9.00952 5.95833 10C5.95833 10.9906 5.15719 11.7917 4.16667 11.7917ZM4.16667 8.45837C3.31552 8.45837 2.625 9.1489 2.625 10C2.625 10.8512 3.31552 11.5417 4.16667 11.5417C5.01781 11.5417 5.70833 10.8512 5.70833 10C5.70833 9.1489 5.01781 8.45837 4.16667 8.45837Z" fill="#667888" stroke="#667888"/>
<path id="Vector_2" d="M15.8333 11.7917C14.8428 11.7917 14.0417 10.9906 14.0417 10C14.0417 9.00952 14.8428 8.20837 15.8333 8.20837C16.8239 8.20837 17.625 9.00952 17.625 10C17.625 10.9906 16.8239 11.7917 15.8333 11.7917ZM15.8333 8.45837C14.9822 8.45837 14.2917 9.1489 14.2917 10C14.2917 10.8512 14.9822 11.5417 15.8333 11.5417C16.6845 11.5417 17.375 10.8512 17.375 10C17.375 9.1489 16.6845 8.45837 15.8333 8.45837Z" fill="#667888" stroke="#667888"/>
<path id="Vector_3" d="M9.99999 12.2917C8.73333 12.2917 7.70833 11.2667 7.70833 10C7.70833 8.73337 8.73333 7.70837 9.99999 7.70837C11.2667 7.70837 12.2917 8.73337 12.2917 10C12.2917 11.2667 11.2667 12.2917 9.99999 12.2917ZM9.99999 8.95837C9.42499 8.95837 8.95833 9.42504 8.95833 10C8.95833 10.575 9.42499 11.0417 9.99999 11.0417C10.575 11.0417 11.0417 10.575 11.0417 10C11.0417 9.42504 10.575 8.95837 9.99999 8.95837Z" fill="#667888"/>
</g>
</g>
</svg>
