<svg width="24" height="24" viewBox="0 0 24 24" fill="none" xmlns="http://www.w3.org/2000/svg">
<g id="vuesax/twotone/profile-tick">
<g id="profile-tick">
<path id="Vector" opacity="0.4" d="M14.44 19.05L15.96 20.57L19 17.53" stroke="#1D2022" stroke-width="1.5" stroke-linecap="round" stroke-linejoin="round"/>
<path id="Vector_2" opacity="0.4" d="M12.16 10.87C12.06 10.86 11.94 10.86 11.83 10.87C9.45 10.79 7.56 8.84 7.56 6.44C7.55 3.99 9.54 2 11.99 2C14.44 2 16.43 3.99 16.43 6.44C16.43 8.84 14.53 10.79 12.16 10.87Z" stroke="#1D2022" stroke-width="1.5" stroke-linecap="round" stroke-linejoin="round"/>
<path id="Vector_3" d="M11.99 21.8099C10.17 21.8099 8.36001 21.3499 6.98001 20.4299C4.56001 18.8099 4.56001 16.1699 6.98001 14.5599C9.73001 12.7199 14.24 12.7199 16.99 14.5599" stroke="#1D2022" stroke-width="1.5" stroke-linecap="round" stroke-linejoin="round"/>
</g>
</g>
</svg>
