<svg width="72" height="72" viewBox="0 0 72 72" fill="none" xmlns="http://www.w3.org/2000/svg">
<g id="vuesax/bulk/profile-delete">
<g id="profile-delete">
<path id="Vector" d="M22.25 20.25C22.25 12.6661 28.4161 6.5 36 6.5C43.5835 6.5 49.7495 12.6656 49.75 20.249C49.7205 27.6885 43.9069 33.7051 36.5012 33.97H36.501H36.5009H36.5007H36.5006H36.5005H36.5003H36.5002H36.5H36.4999H36.4998H36.4996H36.4995H36.4994H36.4992H36.4991H36.499H36.4988H36.4987H36.4986H36.4984H36.4983H36.4982H36.498H36.4979H36.4978H36.4976H36.4975H36.4974H36.4973H36.4971H36.497H36.4969H36.4968H36.4966H36.4965H36.4964H36.4963H36.4961H36.496H36.4959H36.4958H36.4957H36.4955H36.4954H36.4953H36.4952H36.495H36.4949H36.4948H36.4947H36.4946H36.4945H36.4943H36.4942H36.4941H36.494H36.4939H36.4938H36.4936H36.4935H36.4934H36.4933H36.4932H36.4931H36.493H36.4929H36.4927H36.4926H36.4925H36.4924H36.4923H36.4922H36.4921H36.492H36.4919H36.4918H36.4916H36.4915H36.4914H36.4913H36.4912H36.4911H36.491H36.4909H36.4908H36.4907H36.4906H36.4905H36.4904H36.4903H36.4902H36.4901H36.49H36.4898H36.4897H36.4896H36.4895H36.4894H36.4893H36.4892H36.4891H36.489H36.4889H36.4888H36.4887H36.4886H36.4885H36.4884H36.4883H36.4882H36.4881H36.488H36.4879H36.4878H36.4877H36.4876H36.4876H36.4875H36.4874H36.4873H36.4872H36.4871H36.487H36.4869H36.4868H36.4867H36.4866H36.4865H36.4864H36.4863H36.4862H36.4861H36.486H36.4859H36.4858H36.4857H36.4856H36.4856H36.4855H36.4854H36.4853H36.4852H36.4851H36.485H36.4849H36.4848H36.4847H36.4846H36.4845H36.4845H36.4844H36.4843H36.4842H36.4841H36.484H36.4839H36.4838H36.4837H36.4836H36.4835H36.4835H36.4834H36.4833H36.4832H36.4831H36.483H36.4829H36.4828H36.4827H36.4826H36.4826H36.4825H36.4824H36.4823H36.4822H36.4821H36.482H36.4819H36.4818H36.4818H36.4817H36.4816H36.4815H36.4814H36.4813H36.4812H36.4811H36.4811H36.481H36.4809H36.4808H36.4807H36.4806H36.4805H36.4804H36.4804H36.4803H36.4802H36.4801H36.48H36.4799H36.4798H36.4797H36.4796H36.4796H36.4795H36.4794H36.4793H36.4792H36.4791H36.479H36.4789H36.4789H36.4788H36.4787H36.4786H36.4785H36.4784H36.4783H36.4782H36.4781H36.4781H36.478H36.4779H36.4778H36.4777H36.4776H36.4775H36.4774H36.4774H36.4773H36.4772H36.4771H36.477H36.4769H36.4768H36.4767H36.4766H36.4765H36.4765H36.4764H36.4763H36.4762H36.4761H36.476H36.4759H36.4758H36.4757H36.4756H36.4755H36.4755H36.4754H36.4753H36.4752H36.4751H36.475H36.4749H36.4748H36.4747H36.4746H36.4745H36.4744H36.4743H36.4743H36.4742H36.4741H36.474H36.4739H36.4738H36.4737H36.4736H36.4735H36.4734H36.4733H36.4732H36.4731H36.473H36.4729H36.4728H36.4727H36.4726H36.4725H36.4724H36.4724H36.4723H36.4722H36.4721H36.472H36.4719H36.4718H36.4717H36.4716H36.4715H36.4714H36.4713H36.4712H36.4711H36.471H36.4709H36.4708H36.4707H36.4706H36.4705H36.4704H36.4703H36.4701H36.47H36.4699H36.4698H36.4697H36.4696H36.4695H36.4694H36.4693H36.4692H36.4691H36.469H36.4689H36.4688H36.4687H36.4686H36.4685H36.4684H36.4682H36.4681H36.468H36.4679H36.4678H36.4677H36.4676H36.4675H36.4674H36.4673H36.4671H36.467H36.4669H36.4668H36.4667H36.4666H36.4665H36.4664H36.4662H36.4661H36.466H36.4659H36.4658H36.4657H36.4655H36.4654H36.4653H36.4652H36.4651H36.465H36.4648H36.4647H36.4646H36.4645H36.4643H36.4642H36.4641H36.464H36.4639H36.4637H36.4636H36.4635H36.4634H36.4632H36.4631H36.463H36.4629H36.4627H36.4626H36.4625H36.4624H36.4622H36.4621H36.462H36.4618H36.4617H36.4616H36.4614H36.4613H36.4612H36.461H36.4609H36.4608H36.4606H36.4605H36.4604H36.4602H36.4601H36.46H36.4598H36.4597H36.4595H36.4594H36.4593H36.4591H36.459H36.4588H36.4587H36.4586H36.4584H36.4583H36.4581H36.458H36.4578H36.4577H36.4575H36.4574H36.4573H36.4571H36.457H36.4568H36.4567H36.4565H36.4564H36.4562H36.4561H36.4559H36.4557H36.4556H36.4554H36.4553H36.4551H36.455H36.4548H36.4547H36.4545H36.4543H36.4542H36.454H36.4539H36.4537H36.4535H36.4534H36.4532H36.4531H36.4529H36.4527H36.4526H36.4524H36.4522H36.4521H36.4519H36.4517H36.4516H36.4514H36.4512H36.451H36.4509H36.4507H36.4505H36.4503H36.4502H36.45H36.4496H36.4493H36.4489H36.4486H36.4482H36.4479H36.4476H36.4472H36.4469H36.4465H36.4462H36.4458H36.4455H36.4451H36.4448H36.4445H36.4441H36.4438H36.4434H36.4431H36.4428H36.4424H36.4421H36.4418H36.4414H36.4411H36.4407H36.4404H36.4401H36.4397H36.4394H36.4391H36.4388H36.4384H36.4381H36.4378H36.4374H36.4371H36.4368H36.4365H36.4361H36.4358H36.4355H36.4352H36.4348H36.4345H36.4342H36.4339H36.4335H36.4332H36.4329H36.4326H36.4323H36.4319H36.4316H36.4313H36.431H36.4307H36.4304H36.43H36.4297H36.4294H36.4291H36.4288H36.4285H36.4282H36.4279H36.4275H36.4272H36.4269H36.4266H36.4263H36.426H36.4257H36.4254H36.4251H36.4248H36.4245H36.4241H36.4238H36.4235H36.4232H36.4229H36.4226H36.4223H36.422H36.4217H36.4214H36.4211H36.4208H36.4205H36.4202H36.4199H36.4196H36.4193H36.419H36.4187H36.4184H36.4181H36.4178H36.4175H36.4172H36.4169H36.4166H36.4164H36.4161H36.4158H36.4155H36.4152H36.4149H36.4146H36.4143H36.414H36.4137H36.4134H36.4131H36.4129H36.4126H36.4123H36.412H36.4117H36.4114H36.4111H36.4108H36.4105H36.4103H36.41H36.4097H36.4094H36.4091H36.4088H36.4085H36.4083H36.408H36.4077H36.4074H36.4071H36.4068H36.4066H36.4063H36.406H36.4057H36.4054H36.4052H36.4049H36.4046H36.4043H36.404H36.4038H36.4035H36.4032H36.4029H36.4026H36.4024H36.4021H36.4018H36.4015H36.4013H36.401H36.4007H36.4004H36.4002H36.3999H36.3996H36.3993H36.3991H36.3988H36.3985H36.3982H36.398H36.3977H36.3974H36.3971H36.3969H36.3966H36.3963H36.396H36.3958H36.3955H36.3952H36.395H36.3947H36.3944H36.3942H36.3939H36.3936H36.3933H36.3931H36.3928H36.3925H36.3923H36.392H36.3917H36.3915H36.3912H36.3909H36.3906H36.3904H36.3901H36.3898H36.3896H36.3893H36.389H36.3888H36.3885H36.3882H36.388H36.3877H36.3874H36.3872H36.3869H36.3866H36.3864H36.3861H36.3858H36.3856H36.3853H36.385H36.3848H36.3845H36.3842H36.384H36.3837H36.3835H36.3832H36.3829H36.3827H36.3824H36.3821H36.3819H36.3816H36.3813H36.3811H36.3808H36.3805H36.3803H36.38H36.3797H36.3795H36.3792H36.379H36.3787H36.3784H36.3782H36.3779H36.3776H36.3774H36.3771H36.3768H36.3766H36.3763H36.3761H36.3758H36.3755H36.3753H36.375H36.3747H36.3745H36.3742H36.3739H36.3737H36.3734H36.3732H36.3729H36.3726H36.3724H36.3721H36.3718H36.3716H36.3713H36.371H36.3708H36.3705H36.3703H36.37H36.3697H36.3695H36.3692H36.3689H36.3687H36.3684H36.3681H36.3679H36.3676H36.3673H36.3671H36.3668H36.3665H36.3663H36.366H36.3658H36.3655H36.3652H36.365H36.3647H36.3644H36.3642H36.3639H36.3636H36.3634H36.3631H36.3628H36.3626H36.3623H36.362H36.3618H36.3615H36.3612H36.361H36.3607H36.3604H36.3602H36.3599H36.3596H36.3594H36.3591H36.3588H36.3585H36.3583H36.358H36.3577H36.3575H36.3572H36.3569H36.3567H36.3564H36.3561H36.3558H36.3556H36.3553H36.355H36.3548H36.3545H36.3542H36.354H36.3537H36.3534H36.3531H36.3529H36.3526H36.3523H36.352H36.3518H36.3515H36.3512H36.3509H36.3507H36.3504H36.3501H36.3498H36.3496H36.3493H36.349H36.3487H36.3485H36.3482H36.3479H36.3476H36.3474H36.3471H36.3468H36.3465H36.3462H36.346H36.3457H36.3454H36.3451H36.3448H36.3446H36.3443H36.344H36.3437H36.3434H36.3432H36.3429H36.3426H36.3423H36.342H36.3417H36.3415H36.3412H36.3409H36.3406H36.3403H36.34H36.3397H36.3395H36.3392H36.3389H36.3386H36.3383H36.338C36.1192 33.939 35.8638 33.9414 35.6193 33.9689C28.0436 33.6894 22.25 27.6747 22.25 20.25Z" fill="#D1D5DB" stroke="#D1D5DB"/>
<path id="Vector_2" opacity="0.4" d="M21.0387 61.3549L21.0374 61.354C17.3584 58.9013 15.38 55.6217 15.38 52.14C15.38 48.6579 17.3587 45.3485 21.0671 42.8662C25.1836 40.1418 30.6018 38.765 36.0375 38.765C41.4738 38.765 46.8767 40.1421 50.9627 42.866C54.6381 45.3163 56.591 48.5957 56.62 52.0822C56.6192 55.5936 54.6403 58.8729 50.9606 61.3553C46.8598 64.1085 41.4427 65.5 36 65.5C30.5571 65.5 25.1396 64.1083 21.0387 61.3549Z" fill="#D1D5DB" stroke="#D1D5DB"/>
<path id="Vector_3" d="M38.8264 51.7864L38.4729 52.14L38.8264 52.4935L41.4664 55.1335C42.1412 55.8083 42.1412 56.9317 41.4664 57.6064C41.1152 57.9577 40.6745 58.12 40.23 58.12C39.7855 58.12 39.3448 57.9577 38.9936 57.6064L36.3536 54.9664L36 54.6129L35.6464 54.9664L33.0064 57.6064L33.36 57.96L33.0064 57.6064C32.6552 57.9577 32.2145 58.12 31.77 58.12C31.3255 58.12 30.8848 57.9577 30.5336 57.6064L30.1879 57.9521L30.5336 57.6064C29.8588 56.9317 29.8588 55.8083 30.5336 55.1336L30.1879 54.7879L30.5336 55.1335L33.1736 52.4935L33.5271 52.14L33.1736 51.7864L30.5336 49.1464C29.8588 48.4717 29.8588 47.3483 30.5336 46.6735C31.2083 45.9988 32.3317 45.9988 33.0064 46.6735L35.6464 49.3135L36 49.6671L36.3536 49.3135L38.9936 46.6735C39.6683 45.9988 40.7917 45.9988 41.4664 46.6735L41.82 46.32L41.4664 46.6735C42.1412 47.3483 42.1412 48.4717 41.4664 49.1464L38.8264 51.7864Z" fill="#D1D5DB" stroke="#D1D5DB"/>
</g>
</g>
</svg>
