<svg width="56" height="56" viewBox="0 0 56 56" fill="none" xmlns="http://www.w3.org/2000/svg">
<defs>
<linearGradient id="paint0_linear_2383_6295" x1="51" y1="28" x2="5" y2="28" gradientUnits="userSpaceOnUse">
<stop stop-color="#00C6FB"/>
<stop offset="1" stop-color="#005BEA"/>
</linearGradient>
<linearGradient id="paint1_linear_2383_6295" x1="41" y1="35" x2="16" y2="35" gradientUnits="userSpaceOnUse">
<stop stop-color="#00C6FB"/>
<stop offset="1" stop-color="#005BEA"/>
</linearGradient>
<linearGradient id="paint2_linear_2383_6295" x1="40" y1="21" x2="15" y2="21" gradientUnits="userSpaceOnUse">
<stop stop-color="#00C6FB"/>
<stop offset="1" stop-color="#005BEA"/>
</linearGradient>
</defs>
<g id="vuesax/bulk/refresh-circle">
<g id="refresh-circle">
<path id="Vector" opacity="0.4" d="M28 51.3334C40.8867 51.3334 51.3334 40.8867 51.3334 28C51.3334 15.1134 40.8867 4.66669 28 4.66669C15.1134 4.66669 4.66669 15.1134 4.66669 28C4.66669 40.8867 15.1134 51.3334 28 51.3334Z" fill="url(#paint0_linear_2383_6295)"/>
<g id="Group">
<path id="Vector_2" d="M39.1067 27.8366C38.1267 27.6732 37.2633 28.3733 37.1233 29.3299C36.8433 31.36 35.9333 33.18 34.5333 34.58C31.3133 37.8 26.32 38.1266 22.7034 35.63H24.4534C25.41 35.63 26.2034 34.8366 26.2034 33.88C26.2034 32.9233 25.41 32.13 24.4534 32.13H18.2233C17.2667 32.13 16.4733 32.9233 16.4733 33.88V40.1099C16.4733 41.0666 17.2667 41.8599 18.2233 41.8599C19.18 41.8599 19.9733 41.0666 19.9733 40.1099V37.9166C22.3067 39.8066 25.13 40.8099 27.9766 40.8099C31.2433 40.8099 34.51 39.5733 37.0066 37.0766C38.9433 35.14 40.18 32.6432 40.5767 29.8432C40.74 28.8399 40.0634 27.9532 39.1067 27.8366Z" fill="url(#paint1_linear_2383_6295)"/>
<path id="Vector_3" d="M17.1266 28.1867C17.99 28.1867 18.7366 27.5567 18.8533 26.6933C19.1333 24.6633 20.0433 22.8433 21.4433 21.4433C24.6633 18.2233 29.6567 17.8966 33.2733 20.3933H31.5233C30.5667 20.3933 29.7733 21.1866 29.7733 22.1433C29.7733 23.1 30.5667 23.8933 31.5233 23.8933H37.7533C38.7099 23.8933 39.5033 23.1 39.5033 22.1433V15.9133C39.5033 14.9567 38.7099 14.1633 37.7533 14.1633C36.7966 14.1633 36.0033 14.9567 36.0033 15.9133V18.1067C30.9866 14.0467 23.6367 14.3033 18.9933 18.9466C17.0567 20.8833 15.8199 23.3799 15.4233 26.1799C15.2833 27.1366 15.96 28.0233 16.9166 28.1633C16.9633 28.1867 17.0566 28.1867 17.1266 28.1867Z" fill="url(#paint2_linear_2383_6295)"/>
</g>
</g>
</g>
</svg>
