<svg width="56" height="56" viewBox="0 0 56 56" fill="none" xmlns="http://www.w3.org/2000/svg">
<defs>
<linearGradient id="paint0_linear_5059_8637" x1="37.3333" y1="10.5" x2="53.6667" y2="10.5" gradientUnits="userSpaceOnUse">
<stop stop-color="#6A11CB"/>
<stop offset="1" stop-color="#2575FC"/>
</linearGradient>
<linearGradient id="paint1_linear_5059_8637" x1="4.66667" y1="14.4667" x2="51.3333" y2="14.4667" gradientUnits="userSpaceOnUse">
<stop stop-color="#6A11CB"/>
<stop offset="1" stop-color="#2575FC"/>
</linearGradient>
<linearGradient id="paint2_linear_5059_8637" x1="4.66667" y1="34.5333" x2="51.3333" y2="34.5333" gradientUnits="userSpaceOnUse">
<stop stop-color="#6A11CB"/>
<stop offset="1" stop-color="#2575FC"/>
</linearGradient>
</defs>
<path d="M48.93 18.6667H42.07C39.1067 18.6667 37.3333 16.8934 37.3333 13.93V7.07004C37.3333 4.10671 39.1067 2.33337 42.07 2.33337H48.93C51.8933 2.33337 53.6667 4.10671 53.6667 7.07004V13.93C53.6667 16.8934 51.8933 18.6667 48.93 18.6667ZM49.4433 10.9434C49.1633 10.6634 48.79 10.5234 48.4167 10.5234C48.0433 10.5234 47.67 10.6634 47.39 10.9434L46.97 11.3634V6.13671C46.97 5.32004 46.3167 4.66671 45.5 4.66671C44.6833 4.66671 44.03 5.32004 44.03 6.13671V11.3634L43.61 10.9434C43.05 10.3834 42.1167 10.3834 41.5567 10.9434C40.9967 11.5034 40.9967 12.4367 41.5567 12.9967L44.4733 15.9134C44.59 16.03 44.7533 16.1234 44.9167 16.1934C44.9633 16.2167 45.01 16.2167 45.0567 16.24C45.1733 16.2867 45.29 16.31 45.43 16.31C45.4767 16.31 45.5233 16.31 45.57 16.31C45.7333 16.31 45.8733 16.2867 46.0367 16.2167C46.06 16.2167 46.06 16.2167 46.0833 16.2167C46.2467 16.1467 46.3867 16.0534 46.5033 15.9367C46.5267 15.9134 46.5267 15.9134 46.55 15.9134L49.4667 12.9967C50.0267 12.4367 50.0267 11.5034 49.4433 10.9434Z" fill="url(#paint0_linear_5059_8637)"/>
<path opacity="0.4" d="M51.3333 18.13V21H4.66667V17.5933C4.66667 12.25 9.00667 7.93335 14.35 7.93335H37.3333V13.93C37.3333 16.8933 39.1067 18.6667 42.07 18.6667H48.93C49.8633 18.6667 50.6567 18.5033 51.3333 18.13Z" fill="url(#paint1_linear_5059_8637)"/>
<path d="M4.66667 21V38.4067C4.66667 43.75 9.00667 48.0667 14.35 48.0667H41.65C46.9933 48.0667 51.3333 43.75 51.3333 38.4067V21H4.66667ZM18.6667 40.25H14C13.0433 40.25 12.25 39.4567 12.25 38.5C12.25 37.5433 13.0433 36.75 14 36.75H18.6667C19.6233 36.75 20.4167 37.5433 20.4167 38.5C20.4167 39.4567 19.6233 40.25 18.6667 40.25ZM33.8333 40.25H24.5C23.5433 40.25 22.75 39.4567 22.75 38.5C22.75 37.5433 23.5433 36.75 24.5 36.75H33.8333C34.79 36.75 35.5833 37.5433 35.5833 38.5C35.5833 39.4567 34.79 40.25 33.8333 40.25Z" fill="url(#paint2_linear_5059_8637)"/>
</svg>
