<svg width="32" height="32" viewBox="0 0 32 32" fill="none" xmlns="http://www.w3.org/2000/svg">
<defs>
<linearGradient id="paint0_linear_466_6729" x1="21.3333" y1="8.66666" x2="29.3333" y2="8.66666" gradientUnits="userSpaceOnUse">
<stop stop-color="#AC32E4"/>
<stop offset="0.48" stop-color="#7918F2"/>
<stop offset="1" stop-color="#4801FF"/>
</linearGradient>
<linearGradient id="paint1_linear_466_6729" x1="2.66667" y1="16.3883" x2="24" y2="16.3883" gradientUnits="userSpaceOnUse">
<stop stop-color="#AC32E4"/>
<stop offset="0.48" stop-color="#7918F2"/>
<stop offset="1" stop-color="#4801FF"/>
</linearGradient>
<linearGradient id="paint2_linear_466_6729" x1="7" y1="12" x2="17" y2="12" gradientUnits="userSpaceOnUse">
<stop stop-color="#AC32E4"/>
<stop offset="0.48" stop-color="#7918F2"/>
<stop offset="1" stop-color="#4801FF"/>
</linearGradient>
<linearGradient id="paint3_linear_466_6729" x1="8" y1="17.3333" x2="16" y2="17.3333" gradientUnits="userSpaceOnUse">
<stop stop-color="#AC32E4"/>
<stop offset="0.48" stop-color="#7918F2"/>
<stop offset="1" stop-color="#4801FF"/>
</linearGradient>
</defs>
<g id="vuesax/bulk/receipt-text">
<g id="receipt-text">
<path id="Vector" d="M29.3333 8V11.2267C29.3333 13.3333 28 14.6667 25.8933 14.6667H21.3333V5.34666C21.3333 3.86666 22.5467 2.66666 24.0267 2.66666C25.48 2.68 26.8133 3.26666 27.7733 4.22666C28.7333 5.2 29.3333 6.53333 29.3333 8Z" fill="url(#paint0_linear_466_6729)"/>
<path id="Vector_2" opacity="0.4" d="M2.66667 9.33333V28C2.66667 29.1067 3.92001 29.7333 4.80001 29.0667L7.08 27.36C7.61334 26.96 8.36001 27.0133 8.84001 27.4933L11.0533 29.72C11.5733 30.24 12.4267 30.24 12.9467 29.72L15.1867 27.48C15.6533 27.0133 16.4 26.96 16.92 27.36L19.2 29.0667C20.08 29.72 21.3333 29.0933 21.3333 28V5.33333C21.3333 3.86666 22.5333 2.66666 24 2.66666H9.33334H8.00001C4.00001 2.66666 2.66667 5.05333 2.66667 8V9.33333Z" fill="url(#paint1_linear_466_6729)"/>
<g id="Group">
<path id="Vector_3" d="M16 13H8C7.45333 13 7 12.5467 7 12C7 11.4533 7.45333 11 8 11H16C16.5467 11 17 11.4533 17 12C17 12.5467 16.5467 13 16 13Z" fill="url(#paint2_linear_466_6729)"/>
</g>
<g id="Group_2">
<path id="Vector_4" d="M15 18.3333H9C8.45333 18.3333 8 17.88 8 17.3333C8 16.7867 8.45333 16.3333 9 16.3333H15C15.5467 16.3333 16 16.7867 16 17.3333C16 17.88 15.5467 18.3333 15 18.3333Z" fill="url(#paint3_linear_466_6729)"/>
</g>
</g>
</g>
</svg>
