<svg width="56" height="56" viewBox="0 0 56 56" fill="none" xmlns="http://www.w3.org/2000/svg">
<defs>
<linearGradient id="paint0_linear_5122_52987" x1="4.66675" y1="14.4667" x2="51.3334" y2="14.4667" gradientUnits="userSpaceOnUse">
<stop stop-color="#FF0844"/>
<stop offset="1" stop-color="#FFB199"/>
</linearGradient>
<linearGradient id="paint1_linear_5122_52987" x1="4.66675" y1="34.5333" x2="51.3334" y2="34.5333" gradientUnits="userSpaceOnUse">
<stop stop-color="#FF0844"/>
<stop offset="1" stop-color="#FFB199"/>
</linearGradient>
<linearGradient id="paint2_linear_5122_52987" x1="37.3333" y1="10.5" x2="53.6666" y2="10.5" gradientUnits="userSpaceOnUse">
<stop stop-color="#FF0844"/>
<stop offset="1" stop-color="#FFB199"/>
</linearGradient>
</defs>
<path opacity="0.4" d="M51.3334 18.13V21H4.66675V17.5933C4.66675 12.25 9.00675 7.93335 14.3501 7.93335H37.3334V13.93C37.3334 16.8933 39.1067 18.6667 42.0701 18.6667H48.9301C49.8634 18.6667 50.6567 18.5033 51.3334 18.13Z" fill="url(#paint0_linear_5122_52987)"/>
<path d="M4.66675 21V38.4067C4.66675 43.75 9.00675 48.0667 14.3501 48.0667H41.6501C46.9934 48.0667 51.3334 43.75 51.3334 38.4067V21H4.66675ZM18.6667 40.25H14.0001C13.0434 40.25 12.2501 39.4567 12.2501 38.5C12.2501 37.5433 13.0434 36.75 14.0001 36.75H18.6667C19.6234 36.75 20.4167 37.5433 20.4167 38.5C20.4167 39.4567 19.6234 40.25 18.6667 40.25ZM33.8334 40.25H24.5001C23.5434 40.25 22.7501 39.4567 22.7501 38.5C22.7501 37.5433 23.5434 36.75 24.5001 36.75H33.8334C34.7901 36.75 35.5834 37.5433 35.5834 38.5C35.5834 39.4567 34.7901 40.25 33.8334 40.25Z" fill="url(#paint1_linear_5122_52987)"/>
<path d="M48.9299 2.33337H42.0699C39.1066 2.33337 37.3333 4.10671 37.3333 7.07004V13.93C37.3333 16.8934 39.1066 18.6667 42.0699 18.6667H48.9299C51.8933 18.6667 53.6666 16.8934 53.6666 13.93V7.07004C53.6666 4.10671 51.8933 2.33337 48.9299 2.33337ZM49.7933 12.81C50.0499 13.1134 50.1899 13.44 50.1899 13.8367C50.1899 14.1634 50.0499 14.5367 49.7933 14.7934C49.2566 15.33 48.3466 15.33 47.8099 14.7934L45.4999 12.4834L43.2133 14.8167C42.6766 15.3534 41.7666 15.3534 41.2066 14.7934C40.6699 14.2567 40.6699 13.3467 41.2066 12.81L43.5399 10.5234L41.2299 8.21337C40.6933 7.67671 40.6699 6.76671 41.2066 6.20671C41.7433 5.64671 42.6533 5.67004 43.2133 6.23004L45.4999 8.54004L47.8333 6.20671C48.3699 5.67004 49.2799 5.67004 49.8166 6.20671C50.0733 6.51004 50.1899 6.86004 50.2133 7.23337C50.2133 7.56004 50.0733 7.93337 49.8399 8.21337L47.5066 10.5467L49.7933 12.81Z" fill="url(#paint2_linear_5122_52987)"/>
</svg>
