<svg width="16" height="16" viewBox="0 0 16 16" fill="none" xmlns="http://www.w3.org/2000/svg">
<g id="vuesax/bold/share">
<g id="share">
<path id="Vector" d="M13.5733 8.48667C13.3267 8.48667 13.12 8.3 13.0933 8.05334C12.9333 6.58667 12.1467 5.26667 10.9333 4.42667C10.7133 4.27334 10.66 3.97334 10.8133 3.75334C10.9667 3.53334 11.2667 3.48 11.4867 3.63334C12.9333 4.64 13.8667 6.21334 14.06 7.95334C14.0867 8.22 13.8933 8.46 13.6267 8.48667C13.6067 8.48667 13.5933 8.48667 13.5733 8.48667Z" fill="#667888"/>
<path id="Vector_2" d="M2.49333 8.52C2.48 8.52 2.46 8.52 2.44666 8.52C2.18 8.49333 1.98666 8.25333 2.01333 7.98666C2.19333 6.24666 3.11333 4.67333 4.54666 3.66C4.76 3.50666 5.06666 3.56 5.22 3.77333C5.37333 3.99333 5.32 4.29333 5.10666 4.44666C3.90666 5.3 3.12666 6.62 2.98 8.08C2.95333 8.33333 2.74 8.52 2.49333 8.52Z" fill="#667888"/>
<path id="Vector_3" d="M10.66 14.0667C9.84 14.46 8.96 14.66 8.04 14.66C7.08 14.66 6.16666 14.4467 5.31333 14.0133C5.07333 13.9 4.98 13.6067 5.1 13.3667C5.21333 13.1267 5.50666 13.0333 5.74667 13.1467C6.16667 13.36 6.61333 13.5067 7.06667 13.5933C7.68 13.7133 8.30667 13.72 8.92 13.6133C9.37333 13.5333 9.82 13.3933 10.2333 13.1933C10.48 13.08 10.7733 13.1733 10.88 13.42C11 13.66 10.9067 13.9533 10.66 14.0667Z" fill="#667888"/>
<path id="Vector_4" d="M8.03334 1.34C7 1.34 6.15334 2.18 6.15334 3.22C6.15334 4.26 6.99334 5.1 8.03334 5.1C9.07334 5.1 9.91334 4.26 9.91334 3.22C9.91334 2.18 9.07334 1.34 8.03334 1.34Z" fill="#667888"/>
<path id="Vector_5" d="M3.36666 9.24667C2.33333 9.24667 1.48666 10.0867 1.48666 11.1267C1.48666 12.1667 2.32666 13.0067 3.36666 13.0067C4.40666 13.0067 5.24666 12.1667 5.24666 11.1267C5.24666 10.0867 4.4 9.24667 3.36666 9.24667Z" fill="#667888"/>
<path id="Vector_6" d="M12.6333 9.24667C11.6 9.24667 10.7533 10.0867 10.7533 11.1267C10.7533 12.1667 11.5933 13.0067 12.6333 13.0067C13.6733 13.0067 14.5133 12.1667 14.5133 11.1267C14.5133 10.0867 13.6733 9.24667 12.6333 9.24667Z" fill="#667888"/>
</g>
</g>
</svg>
