<svg width="14" height="15" viewBox="0 0 14 15" fill="none" xmlns="http://www.w3.org/2000/svg">
<g id="vuesax/bold/star">
<g id="star">
<path id="Vector" d="M3.34829 9.75643C3.41246 9.47059 3.29579 9.06226 3.09163 8.85809L1.67413 7.44059C1.23079 6.99726 1.05579 6.52476 1.18413 6.11643C1.31829 5.70809 1.73246 5.42809 2.35079 5.32309L4.17079 5.01976C4.43329 4.97309 4.75412 4.73976 4.87662 4.50059L5.87996 2.48809C6.17162 1.91059 6.56829 1.58976 6.99996 1.58976C7.43162 1.58976 7.82829 1.91059 8.11996 2.48809L9.12329 4.50059C9.19913 4.65226 9.35662 4.79809 9.52579 4.89726L3.24329 11.1798C3.16163 11.2614 3.02162 11.1856 3.04496 11.0689L3.34829 9.75643Z" fill="#FAAD14"/>
<path id="Vector_2" d="M10.9083 8.85809C10.6983 9.06809 10.5816 9.47059 10.6516 9.75642L11.0541 11.5123C11.2233 12.2414 11.1183 12.7898 10.7566 13.0523C10.6108 13.1573 10.4358 13.2098 10.2316 13.2098C9.93413 13.2098 9.58413 13.0989 9.19913 12.8714L7.48997 11.8564C7.22163 11.6989 6.7783 11.6989 6.50997 11.8564L4.8008 12.8714C4.1533 13.2506 3.59913 13.3148 3.2433 13.0523C3.10913 12.9531 3.00997 12.8189 2.9458 12.6439L10.0391 5.55059C10.3075 5.28226 10.6866 5.15976 11.0541 5.22392L11.6433 5.32309C12.2616 5.42809 12.6758 5.70809 12.81 6.11643C12.9383 6.52476 12.7633 6.99726 12.32 7.44059L10.9083 8.85809Z" fill="#FAAD14"/>
</g>
</g>
</svg>
