<svg width="17" height="16" viewBox="0 0 17 16" fill="none" xmlns="http://www.w3.org/2000/svg">
<path d="M14.5466 3.48683C13.4733 3.38016 12.3999 3.30016 11.3199 3.24016V3.2335L11.1733 2.36683C11.0733 1.7535 10.9266 0.833496 9.36661 0.833496H7.61994C6.06661 0.833496 5.91994 1.7135 5.81328 2.36016L5.67328 3.2135C5.05328 3.2535 4.43328 3.2935 3.81328 3.3535L2.45328 3.48683C2.17328 3.5135 1.97328 3.76016 1.99994 4.0335C2.02661 4.30683 2.26661 4.50683 2.54661 4.48016L3.90661 4.34683C7.39994 4.00016 10.9199 4.1335 14.4533 4.48683C14.4733 4.48683 14.4866 4.48683 14.5066 4.48683C14.7599 4.48683 14.9799 4.2935 15.0066 4.0335C15.0266 3.76016 14.8266 3.5135 14.5466 3.48683Z" fill="#FF5D01"/>
<path d="M13.3199 5.4265C13.1599 5.25984 12.9399 5.1665 12.7132 5.1665H4.28658C4.05991 5.1665 3.83325 5.25984 3.67991 5.4265C3.52658 5.59317 3.43991 5.81984 3.45325 6.05317L3.86658 12.8932C3.93991 13.9065 4.03325 15.1732 6.35991 15.1732H10.6399C12.9666 15.1732 13.0599 13.9132 13.1332 12.8932L13.5466 6.05984C13.5599 5.81984 13.4732 5.59317 13.3199 5.4265ZM9.60658 11.8332H7.38658C7.11325 11.8332 6.88658 11.6065 6.88658 11.3332C6.88658 11.0598 7.11325 10.8332 7.38658 10.8332H9.60658C9.87991 10.8332 10.1066 11.0598 10.1066 11.3332C10.1066 11.6065 9.87991 11.8332 9.60658 11.8332ZM10.1666 9.1665H6.83325C6.55991 9.1665 6.33325 8.93984 6.33325 8.6665C6.33325 8.39317 6.55991 8.1665 6.83325 8.1665H10.1666C10.4399 8.1665 10.6666 8.39317 10.6666 8.6665C10.6666 8.93984 10.4399 9.1665 10.1666 9.1665Z" fill="#FF5D01"/>
</svg>
