<svg width="38" height="38" viewBox="0 0 38 38" fill="none" xmlns="http://www.w3.org/2000/svg">
<g id="vuesax/bulk/star-slash">
<g id="star-slash">
<path id="Vector" opacity="0.4" d="M29.6083 22.895C29.0542 23.4492 28.7375 24.5733 28.9117 25.3333L30.0042 30.0992C30.4633 32.0783 30.1783 33.5667 29.1967 34.2792C28.8008 34.5642 28.3258 34.7067 27.7717 34.7067C26.9642 34.7067 26.0142 34.4058 24.9692 33.7883L20.33 31.0333C19.6175 30.6058 18.3825 30.6058 17.67 31.0333L13.0308 33.7883C11.2733 34.8175 9.76915 34.9917 8.80332 34.2792C8.73998 34.2317 8.67665 34.1842 8.62915 34.1208L29.7667 12.9833L31.6192 13.3C33.2975 13.585 34.4217 14.345 34.7858 15.4533C35.1342 16.5617 34.6592 17.8442 33.4558 19.0475L29.6083 22.895Z" fill="#CAD0D9"/>
<path id="Vector_2" opacity="0.4" d="M9.08833 25.3333C9.2625 24.5733 8.94583 23.4492 8.39167 22.895L4.54417 19.0475C3.34083 17.8442 2.86583 16.5617 3.21417 15.4533C3.57833 14.345 4.7025 13.585 6.38083 13.3L11.3208 12.4767C12.0333 12.35 12.9042 11.7167 13.2367 11.0675L15.96 5.60501C16.7517 4.03751 17.8283 3.16667 19 3.16667C20.1717 3.16667 21.2483 4.03751 22.04 5.60501L24.7633 11.0675C24.9692 11.4792 25.3967 11.875 25.8558 12.1442L8.0275 29.9725L9.08833 25.3333Z" fill="#CAD0D9"/>
<path id="Vector_3" d="M34.4691 3.53084C33.9941 3.05584 33.2183 3.05584 32.7433 3.53084L3.53081 32.7592C3.05581 33.2342 3.05581 34.01 3.53081 34.485C3.76831 34.7067 4.06914 34.8333 4.38581 34.8333C4.70248 34.8333 5.00331 34.7067 5.24081 34.4692L34.4691 5.24084C34.96 4.76584 34.96 4.00584 34.4691 3.53084Z" fill="#CAD0D9"/>
</g>
</g>
</svg>
