<svg width="24" height="24" viewBox="0 0 24 24" fill="none" xmlns="http://www.w3.org/2000/svg">
<g id="vuesax/bold/setting">
<g id="setting">
<path id="Vector" d="M10.4808 21.1375L10.4803 21.1372L5.32508 18.1557C4.25048 17.4321 3.81027 17.0878 3.58727 16.6997C3.372 16.325 3.32999 15.8564 3.32999 14.71V9.28C3.32999 8.13327 3.37195 7.6666 3.58306 7.29648C3.80116 6.91409 4.23063 6.57791 5.2853 5.86419L10.4895 2.86331C10.4895 2.86329 10.4896 2.86326 10.4896 2.86323C10.8928 2.63112 11.4373 2.5025 12.005 2.5025C12.5725 2.5025 13.1168 2.63105 13.52 2.86304C13.5202 2.86313 13.5203 2.86322 13.5205 2.86331L18.6749 5.8443C19.7505 6.56856 20.1904 6.91026 20.4132 7.29627C20.6279 7.66797 20.67 8.13329 20.67 9.28V14.72C20.67 15.8667 20.628 16.3334 20.4169 16.7035C20.1988 17.0859 19.7693 17.4221 18.7147 18.1358L13.5102 21.1369L13.5102 21.1368L13.5053 21.1397C13.1114 21.3729 12.5654 21.5 12 21.5C11.4358 21.5 10.8874 21.3733 10.4808 21.1375ZM8.24999 12C8.24999 14.0661 9.93384 15.75 12 15.75C14.0661 15.75 15.75 14.0661 15.75 12C15.75 9.93386 14.0661 8.25 12 8.25C9.93384 8.25 8.24999 9.93386 8.24999 12Z" fill="white" stroke="white"/>
</g>
</g>
</svg>
