<svg width="56" height="56" viewBox="0 0 56 56" fill="none" xmlns="http://www.w3.org/2000/svg">
<g id="vuesax/bold/security-safe">
<g id="security-safe">
<path id="Vector" d="M48.79 25.9466V15.7032C48.79 13.7899 47.3434 11.6199 45.5467 10.8966L32.55 5.57658C29.6334 4.38658 26.3434 4.38658 23.4267 5.57658L10.43 10.8966C8.65669 11.6199 7.21002 13.7899 7.21002 15.7032V25.9466C7.21002 37.3566 15.4934 48.0432 26.81 51.1699C27.58 51.3799 28.42 51.3799 29.19 51.1699C40.5067 48.0432 48.79 37.3566 48.79 25.9466ZM29.75 30.0299V36.1666C29.75 37.1232 28.9567 37.9166 28 37.9166C27.0434 37.9166 26.25 37.1232 26.25 36.1666V30.0299C23.8934 29.2832 22.1667 27.0899 22.1667 24.4999C22.1667 21.2799 24.78 18.6666 28 18.6666C31.22 18.6666 33.8334 21.2799 33.8334 24.4999C33.8334 27.1132 32.1067 29.2832 29.75 30.0299Z" fill="url(#paint0_linear_1743_5535)"/>
</g>
</g>
<defs>
<linearGradient id="paint0_linear_1743_5535" x1="7.21002" y1="28.0057" x2="48.79" y2="28.0057" gradientUnits="userSpaceOnUse">
<stop stop-color="#FF5D01"/>
<stop offset="1" stop-color="#F58634"/>
</linearGradient>
</defs>
</svg>
