<svg width="16" height="16" viewBox="0 0 16 16" fill="none" xmlns="http://www.w3.org/2000/svg">
<defs>
<linearGradient id="paint0_linear_571_496" x1="4.00037" y1="8.00495" x2="14.6663" y2="8.00495" gradientUnits="userSpaceOnUse">
<stop stop-color="#FF5D01"/>
<stop offset="1" stop-color="#F58634"/>
</linearGradient>
<linearGradient id="paint1_linear_571_496" x1="4.00037" y1="8.00495" x2="14.6663" y2="8.00495" gradientUnits="userSpaceOnUse">
<stop stop-color="#FF5D01"/>
<stop offset="1" stop-color="#F58634"/>
</linearGradient>
<linearGradient id="paint2_linear_571_496" x1="0.833313" y1="3.33334" x2="5.83331" y2="3.33334" gradientUnits="userSpaceOnUse">
<stop stop-color="#FF5D01"/>
<stop offset="1" stop-color="#F58634"/>
</linearGradient>
<linearGradient id="paint3_linear_571_496" x1="0.833313" y1="3.33334" x2="5.83331" y2="3.33334" gradientUnits="userSpaceOnUse">
<stop stop-color="#FF5D01"/>
<stop offset="1" stop-color="#F58634"/>
</linearGradient>
<linearGradient id="paint4_linear_571_496" x1="0.833313" y1="12.6667" x2="3.83331" y2="12.6667" gradientUnits="userSpaceOnUse">
<stop stop-color="#FF5D01"/>
<stop offset="1" stop-color="#F58634"/>
</linearGradient>
<linearGradient id="paint5_linear_571_496" x1="0.833313" y1="12.6667" x2="3.83331" y2="12.6667" gradientUnits="userSpaceOnUse">
<stop stop-color="#FF5D01"/>
<stop offset="1" stop-color="#F58634"/>
</linearGradient>
<linearGradient id="paint6_linear_571_496" x1="0.833313" y1="8" x2="2.49998" y2="8" gradientUnits="userSpaceOnUse">
<stop stop-color="#FF5D01"/>
<stop offset="1" stop-color="#F58634"/>
</linearGradient>
</defs>
<g id="vuesax/bold/star">
<g id="star">
<path id="Vector" d="M11.8619 6.405L11.8619 6.4049C11.6267 6.36115 11.4012 6.24698 11.2198 6.11317C11.0402 5.98062 10.8606 5.79681 10.7518 5.57498L9.81337 3.69811C9.81327 3.69791 9.81318 3.69771 9.81308 3.69752C9.59219 3.25892 9.38989 3.20764 9.33209 3.2075C9.2747 3.20735 9.0736 3.25713 8.85325 3.69154C8.85307 3.6919 8.85288 3.69226 8.8527 3.69262L7.91487 5.5683C7.80697 5.78833 7.62886 5.97361 7.44843 6.10784C7.26737 6.24253 7.03753 6.36035 6.79421 6.40008L6.79459 6.40002L6.71334 5.90668L6.79367 6.40017L11.8619 6.405ZM11.8619 6.405L11.8721 6.40669M11.8619 6.405L11.8721 6.40669M11.8721 6.40669L13.5716 6.68661C13.5717 6.68662 13.5718 6.68664 13.5719 6.68665C14.0287 6.76238 14.1378 6.93466 14.1572 6.99498C14.1768 7.05629 14.1875 7.2623 13.859 7.59387C13.8588 7.59412 13.8585 7.59437 13.8583 7.59462L12.5331 8.91978C12.348 9.10486 12.226 9.35076 12.1592 9.5843C12.0924 9.81821 12.0657 10.0936 12.1264 10.3535C12.1264 10.3537 12.1265 10.3538 12.1265 10.3539L12.5062 11.9929L12.5063 11.993M11.8721 6.40669L12.5063 11.993M12.5063 11.993C12.646 12.5954 12.4921 12.7614 12.4717 12.7763C12.4516 12.791 12.2471 12.8873 11.7161 12.5706L11.7154 12.5701M12.5063 11.993L11.7154 12.5701M11.7154 12.5701L10.1235 11.6243C9.88301 11.4795 9.59635 11.4233 9.34 11.4233C9.08366 11.4233 8.79702 11.4795 8.55654 11.6243L6.96572 12.5695C6.96554 12.5696 6.96535 12.5697 6.96517 12.5698C6.43411 12.8833 6.22858 12.7885 6.20749 12.7732C6.18814 12.7591 6.03394 12.5957 6.17374 11.993L6.17376 11.9929M11.7154 12.5701L6.17376 11.9929M6.17376 11.9929L6.55376 10.3529L6.55615 10.3425M6.17376 11.9929L6.55615 10.3425M6.55615 10.3425L6.5581 10.3321M6.55615 10.3425L6.5581 10.3321M6.5581 10.3321C6.60584 10.0775 6.57649 9.80777 6.50805 9.57487M6.5581 10.3321L6.50805 9.57487M6.50805 9.57487C6.44007 9.34349 6.31864 9.0982 6.13356 8.91311M6.50805 9.57487L6.13356 8.91311M6.13356 8.91311L4.80689 7.58645M6.13356 8.91311L4.80689 7.58645M4.80689 7.58645C4.47887 7.25843 4.49002 7.05421 4.50952 6.99331M4.80689 7.58645L4.50952 6.99331M4.50952 6.99331C4.5293 6.93154 4.64012 6.75846 5.09639 6.67972L4.50952 6.99331Z" fill="url(#paint0_linear_571_496)" stroke="url(#paint1_linear_571_496)"/>
<g id="Vector_2">
<mask id="path-2-inside-1_571_496" fill="white">
<path d="M5.33331 3.83334H1.33331C1.05998 3.83334 0.833313 3.60667 0.833313 3.33334C0.833313 3.06 1.05998 2.83334 1.33331 2.83334H5.33331C5.60665 2.83334 5.83331 3.06 5.83331 3.33334C5.83331 3.60667 5.60665 3.83334 5.33331 3.83334Z"/>
</mask>
<path d="M5.33331 3.83334H1.33331C1.05998 3.83334 0.833313 3.60667 0.833313 3.33334C0.833313 3.06 1.05998 2.83334 1.33331 2.83334H5.33331C5.60665 2.83334 5.83331 3.06 5.83331 3.33334C5.83331 3.60667 5.60665 3.83334 5.33331 3.83334Z" fill="url(#paint2_linear_571_496)"/>
<path d="M5.33331 2.83334H1.33331V4.83334H5.33331V2.83334ZM1.33331 2.83334C1.61226 2.83334 1.83331 3.05438 1.83331 3.33334H-0.166687C-0.166687 4.15895 0.507695 4.83334 1.33331 4.83334V2.83334ZM1.83331 3.33334C1.83331 3.61229 1.61226 3.83334 1.33331 3.83334V1.83334C0.507695 1.83334 -0.166687 2.50772 -0.166687 3.33334H1.83331ZM1.33331 3.83334H5.33331V1.83334H1.33331V3.83334ZM5.33331 3.83334C5.05436 3.83334 4.83331 3.61229 4.83331 3.33334H6.83331C6.83331 2.50772 6.15893 1.83334 5.33331 1.83334V3.83334ZM4.83331 3.33334C4.83331 3.05438 5.05436 2.83334 5.33331 2.83334V4.83334C6.15893 4.83334 6.83331 4.15895 6.83331 3.33334H4.83331Z" fill="url(#paint3_linear_571_496)" mask="url(#path-2-inside-1_571_496)"/>
</g>
<g id="Vector_3">
<mask id="path-4-inside-2_571_496" fill="white">
<path d="M3.33331 13.1667H1.33331C1.05998 13.1667 0.833313 12.94 0.833313 12.6667C0.833313 12.3933 1.05998 12.1667 1.33331 12.1667H3.33331C3.60665 12.1667 3.83331 12.3933 3.83331 12.6667C3.83331 12.94 3.60665 13.1667 3.33331 13.1667Z"/>
</mask>
<path d="M3.33331 13.1667H1.33331C1.05998 13.1667 0.833313 12.94 0.833313 12.6667C0.833313 12.3933 1.05998 12.1667 1.33331 12.1667H3.33331C3.60665 12.1667 3.83331 12.3933 3.83331 12.6667C3.83331 12.94 3.60665 13.1667 3.33331 13.1667Z" fill="url(#paint4_linear_571_496)"/>
<path d="M3.33331 12.1667H1.33331V14.1667H3.33331V12.1667ZM1.33331 12.1667C1.61226 12.1667 1.83331 12.3877 1.83331 12.6667H-0.166687C-0.166687 13.4923 0.507695 14.1667 1.33331 14.1667V12.1667ZM1.83331 12.6667C1.83331 12.9456 1.61226 13.1667 1.33331 13.1667V11.1667C0.507695 11.1667 -0.166687 11.841 -0.166687 12.6667H1.83331ZM1.33331 13.1667H3.33331V11.1667H1.33331V13.1667ZM3.33331 13.1667C3.05436 13.1667 2.83331 12.9456 2.83331 12.6667H4.83331C4.83331 11.841 4.15893 11.1667 3.33331 11.1667V13.1667ZM2.83331 12.6667C2.83331 12.3877 3.05436 12.1667 3.33331 12.1667V14.1667C4.15893 14.1667 4.83331 13.4923 4.83331 12.6667H2.83331Z" fill="url(#paint5_linear_571_496)" mask="url(#path-4-inside-2_571_496)"/>
</g>
<path id="Vector_4" d="M1.99998 8.5H1.33331C1.05998 8.5 0.833313 8.27333 0.833313 8C0.833313 7.72667 1.05998 7.5 1.33331 7.5H1.99998C2.27331 7.5 2.49998 7.72667 2.49998 8C2.49998 8.27333 2.27331 8.5 1.99998 8.5Z" fill="url(#paint6_linear_571_496)"/>
</g>
</g>
</svg>