<svg width="33" height="32" viewBox="0 0 33 32" fill="none" xmlns="http://www.w3.org/2000/svg">
<defs>
<linearGradient id="paint0_linear_466_6517" x1="3.41666" y1="16.0067" x2="30.0833" y2="16.0067" gradientUnits="userSpaceOnUse">
<stop stop-color="#0BA360"/>
<stop offset="1" stop-color="#3CBA92"/>
</linearGradient>
<linearGradient id="paint1_linear_466_6517" x1="19.4033" y1="19.84" x2="22.07" y2="19.84" gradientUnits="userSpaceOnUse">
<stop stop-color="#0BA360"/>
<stop offset="1" stop-color="#3CBA92"/>
</linearGradient>
<linearGradient id="paint2_linear_466_6517" x1="11.4033" y1="13.1733" x2="14.07" y2="13.1733" gradientUnits="userSpaceOnUse">
<stop stop-color="#0BA360"/>
<stop offset="1" stop-color="#3CBA92"/>
</linearGradient>
<linearGradient id="paint3_linear_466_6517" x1="11.26" y1="16.4217" x2="22.2267" y2="16.4217" gradientUnits="userSpaceOnUse">
<stop stop-color="#0BA360"/>
<stop offset="1" stop-color="#3CBA92"/>
</linearGradient>
</defs>
<g id="vuesax/bulk/ticket-discount">
<g id="ticket-discount">
<path id="Vector" opacity="0.4" d="M29.15 14.4533C29.67 14.4533 30.0833 14.04 30.0833 13.52V12.28C30.0833 6.81333 28.4167 5.14667 22.95 5.14667H10.55C5.08332 5.14667 3.41666 6.81333 3.41666 12.28V12.9067C3.41666 13.4267 3.82999 13.84 4.34999 13.84C5.54999 13.84 6.52332 14.8133 6.52332 16.0133C6.52332 17.2133 5.54999 18.1733 4.34999 18.1733C3.82999 18.1733 3.41666 18.5867 3.41666 19.1067V19.7333C3.41666 25.2 5.08332 26.8667 10.55 26.8667H22.95C28.4167 26.8667 30.0833 25.2 30.0833 19.7333C30.0833 19.2133 29.67 18.8 29.15 18.8C27.95 18.8 26.9767 17.8267 26.9767 16.6267C26.9767 15.4267 27.95 14.4533 29.15 14.4533Z" fill="url(#paint0_linear_466_6517)"/>
<path id="Vector_2" d="M20.75 21.1733C20.0033 21.1733 19.4033 20.5733 19.4033 19.84C19.4033 19.1067 20.0033 18.5067 20.7367 18.5067C21.47 18.5067 22.07 19.1067 22.07 19.84C22.07 20.5733 21.4967 21.1733 20.75 21.1733Z" fill="url(#paint1_linear_466_6517)"/>
<path id="Vector_3" d="M12.75 14.5067C12.0033 14.5067 11.4033 13.9067 11.4033 13.1733C11.4033 12.44 12.0033 11.84 12.7367 11.84C13.47 11.84 14.07 12.44 14.07 13.1733C14.07 13.9067 13.4967 14.5067 12.75 14.5067Z" fill="url(#paint2_linear_466_6517)"/>
<path id="Vector_4" d="M12.2567 21.9067C12.0033 21.9067 11.75 21.8133 11.55 21.6133C11.1633 21.2267 11.1633 20.5867 11.55 20.2L20.5233 11.2267C20.91 10.84 21.55 10.84 21.9367 11.2267C22.3233 11.6133 22.3233 12.2533 21.9367 12.64L12.9633 21.6133C12.7767 21.8133 12.51 21.9067 12.2567 21.9067Z" fill="url(#paint3_linear_466_6517)"/>
</g>
</g>
</svg>
