<svg width="21" height="20" viewBox="0 0 21 20" fill="none" xmlns="http://www.w3.org/2000/svg">
<g id="vuesax/bold/tick-circle">
<g id="tick-circle">
<path id="Vector" d="M10.5 1.6665C5.90832 1.6665 2.16666 5.40817 2.16666 9.99984C2.16666 14.5915 5.90832 18.3332 10.5 18.3332C15.0917 18.3332 18.8333 14.5915 18.8333 9.99984C18.8333 5.40817 15.0917 1.6665 10.5 1.6665ZM14.4833 8.08317L9.75832 12.8082C9.64166 12.9248 9.48332 12.9915 9.31666 12.9915C9.14999 12.9915 8.99166 12.9248 8.87499 12.8082L6.51666 10.4498C6.27499 10.2082 6.27499 9.80817 6.51666 9.5665C6.75832 9.32484 7.15832 9.32484 7.39999 9.5665L9.31666 11.4832L13.6 7.19984C13.8417 6.95817 14.2417 6.95817 14.4833 7.19984C14.725 7.4415 14.725 7.83317 14.4833 8.08317Z" fill="#0588CA"/>
</g>
</g>
</svg>
