<svg width="16" height="12" viewBox="0 0 16 12" fill="none" xmlns="http://www.w3.org/2000/svg">
<path fill-rule="evenodd" clip-rule="evenodd" d="M4.6665 6.66667V5.33333C4.6665 4.09333 3.81317 3.06 2.6665 2.76V2C2.6665 0.9 3.5665 0 4.6665 0H11.3332C12.4332 0 13.3332 0.9 13.3332 2V2.76C12.1865 3.06 11.3332 4.09333 11.3332 5.33333V6.66667H4.6665ZM12.6665 5.33333C12.6665 4.6 13.2665 4 13.9998 4C14.7332 4 15.3332 4.6 15.3332 5.33333V8.66667C15.3332 9.76667 14.4332 10.6667 13.3332 10.6667V11.3333C13.3332 11.7 13.0332 12 12.6665 12C12.2998 12 11.9998 11.7 11.9998 11.3333V10.6667H3.99984V11.3333C3.99984 11.7 3.69984 12 3.33317 12C2.9665 12 2.6665 11.7 2.6665 11.3333V10.6667C1.5665 10.6667 0.666504 9.76667 0.666504 8.66667V5.33333C0.666504 4.6 1.2665 4 1.99984 4C2.73317 4 3.33317 4.6 3.33317 5.33333V8H12.6665V5.33333Z" fill="white"/>
</svg>
