<svg width="25" height="24" viewBox="0 0 25 24" fill="none" xmlns="http://www.w3.org/2000/svg">
<g id="vuesax/bulk/voice-square">
<g id="voice-square">
<path id="Vector" opacity="0.4" d="M16.69 2H8.32001C4.68001 2 2.51001 4.17 2.51001 7.81V16.18C2.51001 19.82 4.68001 21.99 8.32001 21.99H16.69C20.33 21.99 22.5 19.82 22.5 16.18V7.81C22.5 4.17 20.33 2 16.69 2Z" fill="white"/>
<g id="Group">
<g id="Group_2">
<path id="Vector_2" d="M6.5 14.89C6.09 14.89 5.75 14.55 5.75 14.14V9.85001C5.75 9.44001 6.09 9.10001 6.5 9.10001C6.91 9.10001 7.25 9.44001 7.25 9.85001V14.14C7.25 14.56 6.91 14.89 6.5 14.89Z" fill="white"/>
</g>
<g id="Group_3">
<path id="Vector_3" d="M9.5 16.32C9.09 16.32 8.75 15.98 8.75 15.57V8.42999C8.75 8.01999 9.09 7.67999 9.5 7.67999C9.91 7.67999 10.25 8.01999 10.25 8.42999V15.57C10.25 15.99 9.91 16.32 9.5 16.32Z" fill="white"/>
</g>
<g id="Group_4">
<path id="Vector_4" d="M12.5 17.75C12.09 17.75 11.75 17.41 11.75 17V7C11.75 6.59 12.09 6.25 12.5 6.25C12.91 6.25 13.25 6.59 13.25 7V17C13.25 17.41 12.91 17.75 12.5 17.75Z" fill="white"/>
</g>
<g id="Group_5">
<path id="Vector_5" d="M15.5 16.32C15.09 16.32 14.75 15.98 14.75 15.57V8.42999C14.75 8.01999 15.09 7.67999 15.5 7.67999C15.91 7.67999 16.25 8.01999 16.25 8.42999V15.57C16.25 15.99 15.91 16.32 15.5 16.32Z" fill="white"/>
</g>
<g id="Group_6">
<path id="Vector_6" d="M18.5 14.89C18.09 14.89 17.75 14.55 17.75 14.14V9.85001C17.75 9.44001 18.09 9.10001 18.5 9.10001C18.91 9.10001 19.25 9.44001 19.25 9.85001V14.14C19.25 14.56 18.91 14.89 18.5 14.89Z" fill="white"/>
</g>
</g>
</g>
</g>
</svg>
