<svg width="20" height="20" viewBox="0 0 20 20" fill="none" xmlns="http://www.w3.org/2000/svg">
<path d="M11.6666 13.3333C11.6666 14.8083 11.025 16.1416 9.99996 17.05C9.11663 17.85 7.94996 18.3333 6.66663 18.3333C3.90829 18.3333 1.66663 16.0916 1.66663 13.3333C1.66663 11.0333 3.23329 9.0833 5.34996 8.5083C5.92496 9.9583 7.15829 11.075 8.68329 11.4916C9.09996 11.6083 9.54163 11.6666 9.99996 11.6666C10.4583 11.6666 10.9 11.6083 11.3166 11.4916C11.5416 12.0583 11.6666 12.6833 11.6666 13.3333Z" stroke="#1D2022" stroke-width="1.5" stroke-linecap="round" stroke-linejoin="round"/>
<path d="M15 6.66675C15 7.31675 14.875 7.94175 14.65 8.50841C14.075 9.95841 12.8417 11.0751 11.3167 11.4917C10.9 11.6084 10.4583 11.6667 10 11.6667C9.54167 11.6667 9.1 11.6084 8.68333 11.4917C7.15833 11.0751 5.925 9.95841 5.35 8.50841C5.125 7.94175 5 7.31675 5 6.66675C5 3.90841 7.24167 1.66675 10 1.66675C12.7583 1.66675 15 3.90841 15 6.66675Z" stroke="#1D2022" stroke-width="1.5" stroke-linecap="round" stroke-linejoin="round"/>
<path opacity="0.4" d="M18.3333 13.3333C18.3333 16.0916 16.0917 18.3333 13.3333 18.3333C12.05 18.3333 10.8833 17.85 10 17.05C11.025 16.1416 11.6667 14.8083 11.6667 13.3333C11.6667 12.6833 11.5417 12.0583 11.3167 11.4916C12.8417 11.075 14.075 9.9583 14.65 8.5083C16.7667 9.0833 18.3333 11.0333 18.3333 13.3333Z" stroke="#1D2022" stroke-width="1.5" stroke-linecap="round" stroke-linejoin="round"/>
</svg>
