<svg width="11" height="11" viewBox="0 0 11 11" fill="none" xmlns="http://www.w3.org/2000/svg">
<path d="M7.87923 1.33333H7.4834C7.3209 1.33333 7.18756 1.46666 7.18756 1.62916C7.18756 1.79583 7.3209 1.92916 7.4834 1.92916H7.87923C8.59173 1.92916 9.1709 2.50833 9.1709 3.21666V5.66666C9.0209 5.58749 8.85423 5.54583 8.67507 5.54583H7.08756C6.48757 5.54583 5.9959 6.03333 5.9959 6.6375V7.2875H5.00423V6.6375C5.00423 6.03333 4.51256 5.54583 3.91256 5.54583H2.32507C2.1459 5.54583 1.97923 5.58749 1.82923 5.66666V3.21666C1.82923 2.50833 2.4084 1.92916 3.1209 1.92916H3.51673C3.67923 1.92916 3.81256 1.79583 3.81256 1.62916C3.81256 1.46666 3.67923 1.33333 3.51673 1.33333H3.1209C2.07923 1.33333 1.2334 2.17916 1.2334 3.21666V6.6375V8.575C1.2334 9.17916 1.72507 9.66666 2.32507 9.66666H3.91256C4.51256 9.66666 5.00423 9.17916 5.00423 8.575V7.87916H5.9959V8.575C5.9959 9.17916 6.48757 9.66666 7.08756 9.66666H8.67507C9.27507 9.66666 9.76673 9.17916 9.76673 8.575V6.6375V3.21666C9.76673 2.17916 8.9209 1.33333 7.87923 1.33333Z" fill="#1D2022"/>
</svg>
