<svg width="20" height="20" viewBox="0 0 20 20" fill="none" xmlns="http://www.w3.org/2000/svg">
<path d="M10 15.8334C12.7583 15.8334 15 13.5917 15 10.8334V6.66675C15 3.90841 12.7583 1.66675 10 1.66675C7.24167 1.66675 5 3.90841 5 6.66675V10.8334C5 13.5917 7.24167 15.8334 10 15.8334Z" stroke="#1D2022" stroke-width="1.5" stroke-linecap="round" stroke-linejoin="round"/>
<path opacity="0.4" d="M2.5 9.16675V10.8334C2.5 14.9751 5.85833 18.3334 10 18.3334C14.1417 18.3334 17.5 14.9751 17.5 10.8334V9.16675" stroke="#1D2022" stroke-width="1.5" stroke-linecap="round" stroke-linejoin="round"/>
<path opacity="0.4" d="M7.59167 6.2334C9.07501 5.69173 10.6917 5.69173 12.175 6.2334" stroke="#1D2022" stroke-width="1.5" stroke-linecap="round" stroke-linejoin="round"/>
<path opacity="0.4" d="M8.35828 8.73335C9.35828 8.45835 10.4166 8.45835 11.4166 8.73335" stroke="#1D2022" stroke-width="1.5" stroke-linecap="round" stroke-linejoin="round"/>
</svg>
