<svg width="20" height="21" viewBox="0 0 20 21" fill="none" xmlns="http://www.w3.org/2000/svg">
<defs>
<linearGradient id="paint0_linear_292_3219" x1="9.61995" y1="27.9063" x2="9.61995" y2="-5.66699" gradientUnits="userSpaceOnUse">
<stop stop-color="#25CF43"/>
<stop offset="1" stop-color="#61FD7D"/>
</linearGradient>
</defs>
<g id="Fill">
<mask id="mask0_292_3219" style="mask-type:alpha" maskUnits="userSpaceOnUse" x="0" y="0" width="20" height="21">
<path id="Mask" fill-rule="evenodd" clip-rule="evenodd" d="M4.5764 19.2089L4.93912 19.424C6.46399 20.3284 8.2119 20.807 9.99407 20.8077H9.99809C15.4722 20.8077 19.9275 16.3544 19.9297 10.8808C19.9308 8.22843 18.8987 5.73435 17.0236 3.85803C15.1484 1.9816 12.6548 0.947639 10.0021 0.946777C4.52374 0.946777 0.0683473 5.39956 0.0661629 10.8727C0.0654156 12.7485 0.590471 14.5752 1.58465 16.1556L1.8208 16.5313L0.817474 20.1944L4.5764 19.2089ZM16.018 13.7216C15.9434 13.597 15.7444 13.5224 15.4458 13.373C15.1473 13.2236 13.6793 12.5017 13.4057 12.402C13.132 12.3026 12.9329 12.2528 12.7339 12.5515C12.5349 12.8502 11.9627 13.5224 11.7885 13.7216C11.6144 13.9207 11.4402 13.9457 11.1417 13.7963C10.8431 13.647 9.88105 13.3318 8.74063 12.3151C7.85303 11.5238 7.25382 10.5466 7.07964 10.2478C6.90552 9.94909 7.06107 9.78753 7.21053 9.63878C7.34487 9.50502 7.50916 9.2902 7.65844 9.11593C7.80773 8.94173 7.85745 8.81717 7.95702 8.61808C8.05652 8.41889 8.00674 8.24468 7.93213 8.0953C7.85745 7.94586 7.26037 6.47696 7.01158 5.87942C6.76917 5.29757 6.52302 5.37635 6.33977 5.36715C6.16582 5.35853 5.96658 5.35664 5.76757 5.35664C5.56851 5.35664 5.24504 5.43127 4.97136 5.7301C4.69768 6.02881 3.92637 6.75085 3.92637 8.21963C3.92637 9.68859 4.99626 11.1075 5.14554 11.3067C5.29483 11.506 7.25088 14.5201 10.246 15.8128C10.9583 16.1203 11.5145 16.3039 11.9481 16.4414C12.6633 16.6685 13.3142 16.6365 13.8286 16.5597C14.4023 16.474 15.5951 15.8377 15.8439 15.1407C16.0927 14.4435 16.0927 13.8461 16.018 13.7216Z" fill="black"/>
</mask>
<g mask="url(#mask0_292_3219)">
<path id="Gradient" d="M26.4065 -5.66699H-7.16675V27.9063H26.4065V-5.66699Z" fill="url(#paint0_linear_292_3219)"/>
</g>
</g>
</svg>
