<svg width="33" height="32" viewBox="0 0 33 32" fill="none" xmlns="http://www.w3.org/2000/svg">
<defs>
<linearGradient id="paint0_linear_516_7633" x1="2.91666" y1="8.66666" x2="20.25" y2="8.66666" gradientUnits="userSpaceOnUse">
<stop stop-color="#FF5D01"/>
<stop offset="1" stop-color="#F58634"/>
</linearGradient>
<linearGradient id="paint1_linear_516_7633" x1="2.91666" y1="18.2" x2="26.9167" y2="18.2" gradientUnits="userSpaceOnUse">
<stop stop-color="#FF5D01"/>
<stop offset="1" stop-color="#F58634"/>
</linearGradient>
<linearGradient id="paint2_linear_516_7633" x1="22.7445" y1="18.2" x2="29.5834" y2="18.2" gradientUnits="userSpaceOnUse">
<stop stop-color="#FF5D01"/>
<stop offset="1" stop-color="#F58634"/>
</linearGradient>
<linearGradient id="paint3_linear_516_7633" x1="8.58334" y1="14.8667" x2="18.5833" y2="14.8667" gradientUnits="userSpaceOnUse">
<stop stop-color="#FF5D01"/>
<stop offset="1" stop-color="#F58634"/>
</linearGradient>
</defs>
<g id="vuesax/bulk/wallet-3">
<g id="wallet-3">
<path id="Vector" d="M20.25 8.20003H8.25C5.30333 8.20003 2.91666 10.5867 2.91666 13.5334V8.71997C2.91666 5.99997 5.11667 3.79996 7.83667 3.79996H15.33C18.05 3.79996 20.25 5.48003 20.25 8.20003Z" fill="url(#paint0_linear_516_7633)"/>
<path id="Vector_2" opacity="0.4" d="M23.5566 16.2667C22.89 16.92 22.57 17.9067 22.8367 18.9067C23.17 20.1467 24.3967 20.9334 25.6767 20.9334H26.9167V22.8667C26.9167 25.8134 24.53 28.2 21.5833 28.2H8.25C5.30333 28.2 2.91666 25.8134 2.91666 22.8667V13.5334C2.91666 10.5867 5.30333 8.20004 8.25 8.20004H21.5833C24.5167 8.20004 26.9167 10.6 26.9167 13.5334V15.4666H25.4766C24.73 15.4666 24.05 15.76 23.5566 16.2667Z" fill="url(#paint1_linear_516_7633)"/>
<path id="Vector_3" d="M29.5834 16.8267V19.5733C29.5834 20.32 28.97 20.9334 28.21 20.9334H25.6367C24.1967 20.9334 22.8767 19.88 22.7567 18.44C22.6767 17.6 22.9967 16.8134 23.5567 16.2667C24.05 15.76 24.73 15.4666 25.4767 15.4666H28.21C28.97 15.4666 29.5834 16.08 29.5834 16.8267Z" fill="url(#paint2_linear_516_7633)"/>
<g id="Group">
<path id="Vector_4" d="M17.5833 15.8667H9.58334C9.03667 15.8667 8.58334 15.4134 8.58334 14.8667C8.58334 14.32 9.03667 13.8667 9.58334 13.8667H17.5833C18.13 13.8667 18.5833 14.32 18.5833 14.8667C18.5833 15.4134 18.13 15.8667 17.5833 15.8667Z" fill="url(#paint3_linear_516_7633)"/>
</g>
</g>
</g>
</svg>
