<svg width="20" height="20" viewBox="0 0 20 20" fill="none" xmlns="http://www.w3.org/2000/svg">
<path d="M7.22499 11.6667H3.33332C2.41666 11.6667 1.66666 12.4167 1.66666 13.3333V18.3333H7.22499V11.6667Z" stroke="#1D2022" stroke-width="1.5" stroke-miterlimit="10" stroke-linecap="round" stroke-linejoin="round"/>
<path d="M11.1083 8.33334H8.88334C7.96667 8.33334 7.21667 9.08334 7.21667 10V18.3333H12.775V10C12.775 9.08334 12.0333 8.33334 11.1083 8.33334Z" stroke="#1D2022" stroke-width="1.5" stroke-miterlimit="10" stroke-linecap="round" stroke-linejoin="round"/>
<path d="M16.6667 14.1667H12.775V18.3333H18.3333V15.8333C18.3333 14.9167 17.5833 14.1667 16.6667 14.1667Z" stroke="#1D2022" stroke-width="1.5" stroke-miterlimit="10" stroke-linecap="round" stroke-linejoin="round"/>
<path opacity="0.4" d="M10.4333 1.72501L10.875 2.60834C10.9333 2.73334 11.0917 2.85 11.225 2.86667L12.025 3C12.5333 3.08334 12.6583 3.45832 12.2917 3.81665L11.6667 4.44165C11.5583 4.54999 11.5 4.75 11.5333 4.89166L11.7083 5.65834C11.85 6.26667 11.525 6.50001 10.9917 6.18334L10.2417 5.74168C10.1083 5.65834 9.88334 5.65834 9.75001 5.74168L9.00001 6.18334C8.46667 6.50001 8.14167 6.26667 8.28334 5.65834L8.45834 4.89166C8.49168 4.75 8.43334 4.54165 8.32501 4.44165L7.70834 3.825C7.34167 3.45833 7.45834 3.09165 7.97501 3.00832L8.77501 2.87501C8.90834 2.85001 9.06668 2.73334 9.12501 2.61668L9.56667 1.73332C9.80834 1.24999 10.1917 1.25001 10.4333 1.72501Z" stroke="#1D2022" stroke-width="1.5" stroke-linecap="round" stroke-linejoin="round"/>
</svg>
