<svg width="20" height="20" viewBox="0 0 20 20" fill="none" xmlns="http://www.w3.org/2000/svg">
<path d="M16.94 3.42L11.77 0.430002C10.78 -0.139998 9.23 -0.139998 8.24 0.430002L3.02 3.44C0.950002 4.84 0.830002 5.05 0.830002 7.28V12.71C0.830002 14.94 0.950002 15.16 3.06 16.58L8.23 19.57C8.73 19.86 9.37 20 10 20C10.63 20 11.27 19.86 11.76 19.57L16.98 16.56C19.05 15.16 19.17 14.95 19.17 12.72V7.28C19.17 5.05 19.05 4.84 16.94 3.42ZM10 13.25C8.21 13.25 6.75 11.79 6.75 10C6.75 8.21 8.21 6.75 10 6.75C11.79 6.75 13.25 8.21 13.25 10C13.25 11.79 11.79 13.25 10 13.25Z" fill="#1D2022"/>
</svg>
